<mxfile host="Electron" agent="Mozilla/5.0 (Windows NT 10.0; Win64; x64) AppleWebKit/537.36 (KHTML, like Gecko) draw.io/26.0.9 Chrome/128.0.6613.186 Electron/32.2.5 Safari/537.36" version="26.0.9">
  <diagram name="Page-1" id="O7bdFl-VR2qvi34aWdMt">
    <mxGraphModel dx="4912" dy="1115" grid="1" gridSize="10" guides="1" tooltips="1" connect="1" arrows="1" fold="1" page="1" pageScale="1" pageWidth="1000" pageHeight="500" math="0" shadow="0">
      <root>
        <mxCell id="0" />
        <mxCell id="1" parent="0" />
        <mxCell id="UshZH0G48LZGHxIDffAy-1" value="" style="edgeStyle=orthogonalEdgeStyle;rounded=0;orthogonalLoop=1;jettySize=auto;html=1;fontFamily=Courier New;fontStyle=1" parent="1" source="UshZH0G48LZGHxIDffAy-2" target="UshZH0G48LZGHxIDffAy-4" edge="1">
          <mxGeometry relative="1" as="geometry" />
        </mxCell>
        <mxCell id="UshZH0G48LZGHxIDffAy-2" value="START" style="ellipse;whiteSpace=wrap;html=1;fontFamily=Courier New;fontStyle=1" parent="1" vertex="1">
          <mxGeometry x="1370" y="10" width="120" height="80" as="geometry" />
        </mxCell>
        <mxCell id="UshZH0G48LZGHxIDffAy-3" value="" style="edgeStyle=orthogonalEdgeStyle;rounded=0;orthogonalLoop=1;jettySize=auto;html=1;fontFamily=Courier New;fontStyle=1" parent="1" source="UshZH0G48LZGHxIDffAy-4" target="UshZH0G48LZGHxIDffAy-6" edge="1">
          <mxGeometry relative="1" as="geometry" />
        </mxCell>
        <mxCell id="UshZH0G48LZGHxIDffAy-4" value="print &#39;WELCOME TO MRT PORTAL&#39;" style="shape=parallelogram;perimeter=parallelogramPerimeter;whiteSpace=wrap;html=1;fixedSize=1;fontFamily=Courier New;fontStyle=1" parent="1" vertex="1">
          <mxGeometry x="1335" y="140" width="190" height="60" as="geometry" />
        </mxCell>
        <mxCell id="UshZH0G48LZGHxIDffAy-5" value="" style="edgeStyle=orthogonalEdgeStyle;rounded=0;orthogonalLoop=1;jettySize=auto;html=1;fontFamily=Courier New;fontStyle=1" parent="1" source="UshZH0G48LZGHxIDffAy-6" target="UshZH0G48LZGHxIDffAy-8" edge="1">
          <mxGeometry relative="1" as="geometry" />
        </mxCell>
        <mxCell id="UshZH0G48LZGHxIDffAy-6" value="logged_in = false" style="whiteSpace=wrap;html=1;fontFamily=Courier New;fontStyle=1" parent="1" vertex="1">
          <mxGeometry x="1370" y="220" width="120" height="60" as="geometry" />
        </mxCell>
        <mxCell id="UshZH0G48LZGHxIDffAy-7" value="" style="edgeStyle=orthogonalEdgeStyle;rounded=0;orthogonalLoop=1;jettySize=auto;html=1;fontFamily=Courier New;fontStyle=1" parent="1" source="UshZH0G48LZGHxIDffAy-8" target="UshZH0G48LZGHxIDffAy-10" edge="1">
          <mxGeometry relative="1" as="geometry" />
        </mxCell>
        <mxCell id="UshZH0G48LZGHxIDffAy-8" value="username = none" style="whiteSpace=wrap;html=1;fontFamily=Courier New;fontStyle=1" parent="1" vertex="1">
          <mxGeometry x="1370" y="320" width="120" height="60" as="geometry" />
        </mxCell>
        <mxCell id="UshZH0G48LZGHxIDffAy-9" value="" style="edgeStyle=orthogonalEdgeStyle;rounded=0;orthogonalLoop=1;jettySize=auto;html=1;fontFamily=Courier New;fontStyle=1" parent="1" source="UshZH0G48LZGHxIDffAy-10" target="UshZH0G48LZGHxIDffAy-13" edge="1">
          <mxGeometry relative="1" as="geometry" />
        </mxCell>
        <mxCell id="UshZH0G48LZGHxIDffAy-10" value="input cmd" style="shape=parallelogram;perimeter=parallelogramPerimeter;whiteSpace=wrap;html=1;fixedSize=1;fontFamily=Courier New;fontStyle=1" parent="1" vertex="1">
          <mxGeometry x="1370" y="435" width="120" height="60" as="geometry" />
        </mxCell>
        <mxCell id="UshZH0G48LZGHxIDffAy-11" value="" style="edgeStyle=orthogonalEdgeStyle;rounded=0;orthogonalLoop=1;jettySize=auto;html=1;fontFamily=Courier New;fontStyle=1" parent="1" source="UshZH0G48LZGHxIDffAy-13" target="UshZH0G48LZGHxIDffAy-16" edge="1">
          <mxGeometry relative="1" as="geometry" />
        </mxCell>
        <mxCell id="UshZH0G48LZGHxIDffAy-12" value="" style="edgeStyle=orthogonalEdgeStyle;rounded=0;orthogonalLoop=1;jettySize=auto;html=1;fontFamily=Courier New;fontStyle=1" parent="1" source="UshZH0G48LZGHxIDffAy-13" target="UshZH0G48LZGHxIDffAy-42" edge="1">
          <mxGeometry relative="1" as="geometry" />
        </mxCell>
        <mxCell id="UshZH0G48LZGHxIDffAy-13" value="if cmd == &#39;register&#39;" style="rhombus;whiteSpace=wrap;html=1;fontFamily=Courier New;fontStyle=1" parent="1" vertex="1">
          <mxGeometry x="1390" y="530" width="80" height="80" as="geometry" />
        </mxCell>
        <mxCell id="UshZH0G48LZGHxIDffAy-14" value="" style="edgeStyle=orthogonalEdgeStyle;rounded=0;orthogonalLoop=1;jettySize=auto;html=1;fontFamily=Courier New;fontStyle=1" parent="1" source="UshZH0G48LZGHxIDffAy-16" target="UshZH0G48LZGHxIDffAy-19" edge="1">
          <mxGeometry relative="1" as="geometry" />
        </mxCell>
        <mxCell id="UshZH0G48LZGHxIDffAy-15" value="" style="edgeStyle=orthogonalEdgeStyle;rounded=0;orthogonalLoop=1;jettySize=auto;html=1;fontFamily=Courier New;fontStyle=1" parent="1" source="UshZH0G48LZGHxIDffAy-16" target="UshZH0G48LZGHxIDffAy-22" edge="1">
          <mxGeometry relative="1" as="geometry" />
        </mxCell>
        <mxCell id="UshZH0G48LZGHxIDffAy-16" value="if logged_in" style="rhombus;whiteSpace=wrap;html=1;fontFamily=Courier New;fontStyle=1" parent="1" vertex="1">
          <mxGeometry x="1740" y="650" width="80" height="80" as="geometry" />
        </mxCell>
        <mxCell id="UshZH0G48LZGHxIDffAy-17" value="TRUE" style="text;html=1;align=center;verticalAlign=middle;whiteSpace=wrap;rounded=0;fontFamily=Courier New;fontStyle=1" parent="1" vertex="1">
          <mxGeometry x="1465" y="540" width="60" height="30" as="geometry" />
        </mxCell>
        <mxCell id="UshZH0G48LZGHxIDffAy-18" style="edgeStyle=orthogonalEdgeStyle;rounded=0;orthogonalLoop=1;jettySize=auto;html=1;exitX=0.5;exitY=1;exitDx=0;exitDy=0;entryX=1;entryY=0.5;entryDx=0;entryDy=0;fontFamily=Courier New;fontStyle=1" parent="1" source="UshZH0G48LZGHxIDffAy-19" target="UshZH0G48LZGHxIDffAy-164" edge="1">
          <mxGeometry relative="1" as="geometry" />
        </mxCell>
        <mxCell id="UshZH0G48LZGHxIDffAy-19" value="print &#39;already logged in&#39;" style="shape=parallelogram;perimeter=parallelogramPerimeter;whiteSpace=wrap;html=1;fixedSize=1;fontFamily=Courier New;fontStyle=1" parent="1" vertex="1">
          <mxGeometry x="1850" y="740" width="150" height="60" as="geometry" />
        </mxCell>
        <mxCell id="UshZH0G48LZGHxIDffAy-20" value="REPEAT" style="text;html=1;align=center;verticalAlign=middle;whiteSpace=wrap;rounded=0;fontFamily=Courier New;fontStyle=1" parent="1" vertex="1">
          <mxGeometry x="1440" y="390" width="60" height="30" as="geometry" />
        </mxCell>
        <mxCell id="rgjTrwtEVMEce0LyzO18-2" value="" style="edgeStyle=orthogonalEdgeStyle;rounded=0;orthogonalLoop=1;jettySize=auto;html=1;fontFamily=Courier New;fontStyle=1" parent="1" source="UshZH0G48LZGHxIDffAy-22" target="rgjTrwtEVMEce0LyzO18-1" edge="1">
          <mxGeometry relative="1" as="geometry" />
        </mxCell>
        <mxCell id="UshZH0G48LZGHxIDffAy-22" value="input username" style="shape=parallelogram;perimeter=parallelogramPerimeter;whiteSpace=wrap;html=1;fixedSize=1;fontFamily=Courier New;fontStyle=1" parent="1" vertex="1">
          <mxGeometry x="1570" y="760" width="120" height="60" as="geometry" />
        </mxCell>
        <mxCell id="UshZH0G48LZGHxIDffAy-23" value="REPEAT" style="text;html=1;align=center;verticalAlign=middle;whiteSpace=wrap;rounded=0;fontFamily=Courier New;fontStyle=1" parent="1" vertex="1">
          <mxGeometry x="1635" y="720" width="60" height="30" as="geometry" />
        </mxCell>
        <mxCell id="UshZH0G48LZGHxIDffAy-36" style="edgeStyle=orthogonalEdgeStyle;rounded=0;orthogonalLoop=1;jettySize=auto;html=1;exitX=0;exitY=0.5;exitDx=0;exitDy=0;entryX=0;entryY=0.5;entryDx=0;entryDy=0;fontFamily=Courier New;fontStyle=1" parent="1" edge="1">
          <mxGeometry relative="1" as="geometry">
            <Array as="points">
              <mxPoint x="1390" y="1748" />
              <mxPoint x="1390" y="792" />
            </Array>
            <mxPoint x="1550" y="1747.5" as="sourcePoint" />
            <mxPoint x="1585" y="792.5" as="targetPoint" />
          </mxGeometry>
        </mxCell>
        <mxCell id="UshZH0G48LZGHxIDffAy-37" style="edgeStyle=orthogonalEdgeStyle;rounded=0;orthogonalLoop=1;jettySize=auto;html=1;exitX=0.5;exitY=1;exitDx=0;exitDy=0;entryX=1;entryY=0.5;entryDx=0;entryDy=0;fontFamily=Courier New;fontStyle=1" parent="1" source="UshZH0G48LZGHxIDffAy-38" target="UshZH0G48LZGHxIDffAy-164" edge="1">
          <mxGeometry relative="1" as="geometry" />
        </mxCell>
        <mxCell id="UshZH0G48LZGHxIDffAy-38" value="until register(username, password, name)" style="rhombus;whiteSpace=wrap;html=1;fontFamily=Courier New;fontStyle=1" parent="1" vertex="1">
          <mxGeometry x="1545" y="1690" width="170" height="110" as="geometry" />
        </mxCell>
        <mxCell id="UshZH0G48LZGHxIDffAy-39" value="FALSE" style="text;html=1;align=center;verticalAlign=middle;whiteSpace=wrap;rounded=0;fontFamily=Courier New;fontStyle=1" parent="1" vertex="1">
          <mxGeometry x="1470" y="1710" width="60" height="30" as="geometry" />
        </mxCell>
        <mxCell id="UshZH0G48LZGHxIDffAy-40" value="" style="edgeStyle=orthogonalEdgeStyle;rounded=0;orthogonalLoop=1;jettySize=auto;html=1;fontFamily=Courier New;fontStyle=1" parent="1" source="UshZH0G48LZGHxIDffAy-42" target="UshZH0G48LZGHxIDffAy-45" edge="1">
          <mxGeometry relative="1" as="geometry" />
        </mxCell>
        <mxCell id="UshZH0G48LZGHxIDffAy-41" value="" style="edgeStyle=orthogonalEdgeStyle;rounded=0;orthogonalLoop=1;jettySize=auto;html=1;fontFamily=Courier New;fontStyle=1" parent="1" source="UshZH0G48LZGHxIDffAy-42" target="UshZH0G48LZGHxIDffAy-66" edge="1">
          <mxGeometry relative="1" as="geometry" />
        </mxCell>
        <mxCell id="UshZH0G48LZGHxIDffAy-42" value="if cmd == &#39;login&#39;" style="rhombus;whiteSpace=wrap;html=1;fontFamily=Courier New;fontStyle=1" parent="1" vertex="1">
          <mxGeometry x="990" y="650" width="80" height="80" as="geometry" />
        </mxCell>
        <mxCell id="UshZH0G48LZGHxIDffAy-43" value="" style="edgeStyle=orthogonalEdgeStyle;rounded=0;orthogonalLoop=1;jettySize=auto;html=1;fontFamily=Courier New;fontStyle=1" parent="1" source="UshZH0G48LZGHxIDffAy-45" target="UshZH0G48LZGHxIDffAy-46" edge="1">
          <mxGeometry relative="1" as="geometry" />
        </mxCell>
        <mxCell id="UshZH0G48LZGHxIDffAy-44" value="" style="edgeStyle=orthogonalEdgeStyle;rounded=0;orthogonalLoop=1;jettySize=auto;html=1;fontFamily=Courier New;fontStyle=1" parent="1" source="UshZH0G48LZGHxIDffAy-45" target="UshZH0G48LZGHxIDffAy-48" edge="1">
          <mxGeometry relative="1" as="geometry" />
        </mxCell>
        <mxCell id="UshZH0G48LZGHxIDffAy-45" value="if logged_in" style="rhombus;whiteSpace=wrap;html=1;fontFamily=Courier New;fontStyle=1" parent="1" vertex="1">
          <mxGeometry x="1140" y="750" width="80" height="80" as="geometry" />
        </mxCell>
        <mxCell id="UshZH0G48LZGHxIDffAy-46" value="print &#39;already logged in&#39;" style="shape=parallelogram;perimeter=parallelogramPerimeter;whiteSpace=wrap;html=1;fixedSize=1;fontFamily=Courier New;fontStyle=1" parent="1" vertex="1">
          <mxGeometry x="1230" y="840" width="140" height="60" as="geometry" />
        </mxCell>
        <mxCell id="UshZH0G48LZGHxIDffAy-47" value="" style="edgeStyle=orthogonalEdgeStyle;rounded=0;orthogonalLoop=1;jettySize=auto;html=1;fontFamily=Courier New;fontStyle=1" parent="1" source="UshZH0G48LZGHxIDffAy-48" target="UshZH0G48LZGHxIDffAy-50" edge="1">
          <mxGeometry relative="1" as="geometry" />
        </mxCell>
        <mxCell id="UshZH0G48LZGHxIDffAy-48" value="input username" style="shape=parallelogram;perimeter=parallelogramPerimeter;whiteSpace=wrap;html=1;fixedSize=1;fontFamily=Courier New;fontStyle=1" parent="1" vertex="1">
          <mxGeometry x="960" y="840" width="120" height="60" as="geometry" />
        </mxCell>
        <mxCell id="UshZH0G48LZGHxIDffAy-49" value="" style="edgeStyle=orthogonalEdgeStyle;rounded=0;orthogonalLoop=1;jettySize=auto;html=1;fontFamily=Courier New;fontStyle=1" parent="1" source="UshZH0G48LZGHxIDffAy-50" target="UshZH0G48LZGHxIDffAy-53" edge="1">
          <mxGeometry relative="1" as="geometry" />
        </mxCell>
        <mxCell id="UshZH0G48LZGHxIDffAy-50" value="input password" style="shape=parallelogram;perimeter=parallelogramPerimeter;whiteSpace=wrap;html=1;fixedSize=1;fontFamily=Courier New;fontStyle=1" parent="1" vertex="1">
          <mxGeometry x="960" y="950" width="120" height="60" as="geometry" />
        </mxCell>
        <mxCell id="UshZH0G48LZGHxIDffAy-51" value="" style="edgeStyle=orthogonalEdgeStyle;rounded=0;orthogonalLoop=1;jettySize=auto;html=1;fontFamily=Courier New;fontStyle=1" parent="1" source="UshZH0G48LZGHxIDffAy-53" target="UshZH0G48LZGHxIDffAy-55" edge="1">
          <mxGeometry relative="1" as="geometry" />
        </mxCell>
        <mxCell id="UshZH0G48LZGHxIDffAy-52" value="" style="edgeStyle=orthogonalEdgeStyle;rounded=0;orthogonalLoop=1;jettySize=auto;html=1;fontFamily=Courier New;fontStyle=1" parent="1" source="UshZH0G48LZGHxIDffAy-53" target="UshZH0G48LZGHxIDffAy-63" edge="1">
          <mxGeometry relative="1" as="geometry" />
        </mxCell>
        <mxCell id="UshZH0G48LZGHxIDffAy-53" value="if login(username, password)" style="rhombus;whiteSpace=wrap;html=1;fontFamily=Courier New;fontStyle=1" parent="1" vertex="1">
          <mxGeometry x="950" y="1070" width="140" height="110" as="geometry" />
        </mxCell>
        <mxCell id="UshZH0G48LZGHxIDffAy-54" value="" style="edgeStyle=orthogonalEdgeStyle;rounded=0;orthogonalLoop=1;jettySize=auto;html=1;fontFamily=Courier New;fontStyle=1" parent="1" source="UshZH0G48LZGHxIDffAy-55" target="UshZH0G48LZGHxIDffAy-57" edge="1">
          <mxGeometry relative="1" as="geometry" />
        </mxCell>
        <mxCell id="UshZH0G48LZGHxIDffAy-55" value="logged_in = true" style="whiteSpace=wrap;html=1;fontFamily=Courier New;fontStyle=1" parent="1" vertex="1">
          <mxGeometry x="1170" y="1190" width="120" height="60" as="geometry" />
        </mxCell>
        <mxCell id="UshZH0G48LZGHxIDffAy-56" value="" style="edgeStyle=orthogonalEdgeStyle;rounded=0;orthogonalLoop=1;jettySize=auto;html=1;fontFamily=Courier New;fontStyle=1" parent="1" source="UshZH0G48LZGHxIDffAy-57" target="UshZH0G48LZGHxIDffAy-59" edge="1">
          <mxGeometry relative="1" as="geometry" />
        </mxCell>
        <mxCell id="UshZH0G48LZGHxIDffAy-57" value="EXECUTE SQL(&#39;&#39;SELECT username WHERE username = ?, (username,))" style="whiteSpace=wrap;html=1;fontFamily=Courier New;fontStyle=1" parent="1" vertex="1">
          <mxGeometry x="1150" y="1330" width="160" height="60" as="geometry" />
        </mxCell>
        <mxCell id="UshZH0G48LZGHxIDffAy-58" value="" style="edgeStyle=orthogonalEdgeStyle;rounded=0;orthogonalLoop=1;jettySize=auto;html=1;fontFamily=Courier New;fontStyle=1" parent="1" source="UshZH0G48LZGHxIDffAy-59" target="UshZH0G48LZGHxIDffAy-61" edge="1">
          <mxGeometry relative="1" as="geometry" />
        </mxCell>
        <mxCell id="UshZH0G48LZGHxIDffAy-59" value="fetch result" style="whiteSpace=wrap;html=1;fontFamily=Courier New;fontStyle=1" parent="1" vertex="1">
          <mxGeometry x="1150" y="1440" width="160" height="60" as="geometry" />
        </mxCell>
        <mxCell id="UshZH0G48LZGHxIDffAy-60" style="edgeStyle=orthogonalEdgeStyle;rounded=0;orthogonalLoop=1;jettySize=auto;html=1;exitX=0.5;exitY=1;exitDx=0;exitDy=0;entryX=0;entryY=0.5;entryDx=0;entryDy=0;fontFamily=Courier New;fontStyle=1" parent="1" source="UshZH0G48LZGHxIDffAy-61" target="UshZH0G48LZGHxIDffAy-164" edge="1">
          <mxGeometry relative="1" as="geometry" />
        </mxCell>
        <mxCell id="UshZH0G48LZGHxIDffAy-61" value="username = result[0]" style="whiteSpace=wrap;html=1;fontFamily=Courier New;fontStyle=1" parent="1" vertex="1">
          <mxGeometry x="1170" y="1540" width="120" height="60" as="geometry" />
        </mxCell>
        <mxCell id="UshZH0G48LZGHxIDffAy-62" style="edgeStyle=orthogonalEdgeStyle;rounded=0;orthogonalLoop=1;jettySize=auto;html=1;exitX=0.5;exitY=1;exitDx=0;exitDy=0;entryX=0;entryY=0.5;entryDx=0;entryDy=0;fontFamily=Courier New;fontStyle=1" parent="1" source="UshZH0G48LZGHxIDffAy-63" target="UshZH0G48LZGHxIDffAy-164" edge="1">
          <mxGeometry relative="1" as="geometry" />
        </mxCell>
        <mxCell id="UshZH0G48LZGHxIDffAy-63" value="logged_in = false" style="whiteSpace=wrap;html=1;fontFamily=Courier New;fontStyle=1" parent="1" vertex="1">
          <mxGeometry x="790" y="1190" width="120" height="60" as="geometry" />
        </mxCell>
        <mxCell id="UshZH0G48LZGHxIDffAy-64" value="" style="edgeStyle=orthogonalEdgeStyle;rounded=0;orthogonalLoop=1;jettySize=auto;html=1;fontFamily=Courier New;fontStyle=1" parent="1" source="UshZH0G48LZGHxIDffAy-66" target="UshZH0G48LZGHxIDffAy-69" edge="1">
          <mxGeometry relative="1" as="geometry" />
        </mxCell>
        <mxCell id="UshZH0G48LZGHxIDffAy-65" value="" style="edgeStyle=orthogonalEdgeStyle;rounded=0;orthogonalLoop=1;jettySize=auto;html=1;fontFamily=Courier New;fontStyle=1" parent="1" source="UshZH0G48LZGHxIDffAy-66" target="UshZH0G48LZGHxIDffAy-76" edge="1">
          <mxGeometry relative="1" as="geometry" />
        </mxCell>
        <mxCell id="UshZH0G48LZGHxIDffAy-66" value="if cmd == &#39;view name&#39;" style="rhombus;whiteSpace=wrap;html=1;fontFamily=Courier New;fontStyle=1" parent="1" vertex="1">
          <mxGeometry x="440" y="740" width="80" height="80" as="geometry" />
        </mxCell>
        <mxCell id="UshZH0G48LZGHxIDffAy-67" value="" style="edgeStyle=orthogonalEdgeStyle;rounded=0;orthogonalLoop=1;jettySize=auto;html=1;fontFamily=Courier New;fontStyle=1" parent="1" source="UshZH0G48LZGHxIDffAy-69" target="UshZH0G48LZGHxIDffAy-71" edge="1">
          <mxGeometry relative="1" as="geometry" />
        </mxCell>
        <mxCell id="UshZH0G48LZGHxIDffAy-68" value="" style="edgeStyle=orthogonalEdgeStyle;rounded=0;orthogonalLoop=1;jettySize=auto;html=1;fontFamily=Courier New;fontStyle=1" parent="1" source="UshZH0G48LZGHxIDffAy-69" target="UshZH0G48LZGHxIDffAy-73" edge="1">
          <mxGeometry relative="1" as="geometry" />
        </mxCell>
        <mxCell id="UshZH0G48LZGHxIDffAy-69" value="if not logged_in" style="rhombus;whiteSpace=wrap;html=1;fontFamily=Courier New;fontStyle=1" parent="1" vertex="1">
          <mxGeometry x="590" y="840" width="80" height="80" as="geometry" />
        </mxCell>
        <mxCell id="UshZH0G48LZGHxIDffAy-70" style="edgeStyle=orthogonalEdgeStyle;rounded=0;orthogonalLoop=1;jettySize=auto;html=1;exitX=0.5;exitY=1;exitDx=0;exitDy=0;entryX=0;entryY=0.5;entryDx=0;entryDy=0;fontFamily=Courier New;fontStyle=1" parent="1" source="UshZH0G48LZGHxIDffAy-71" target="UshZH0G48LZGHxIDffAy-164" edge="1">
          <mxGeometry relative="1" as="geometry" />
        </mxCell>
        <mxCell id="UshZH0G48LZGHxIDffAy-71" value="print &#39;you are not logged in&#39;" style="shape=parallelogram;perimeter=parallelogramPerimeter;whiteSpace=wrap;html=1;fixedSize=1;fontFamily=Courier New;fontStyle=1" parent="1" vertex="1">
          <mxGeometry x="690" y="950" width="120" height="60" as="geometry" />
        </mxCell>
        <mxCell id="UshZH0G48LZGHxIDffAy-72" style="edgeStyle=orthogonalEdgeStyle;rounded=0;orthogonalLoop=1;jettySize=auto;html=1;exitX=0.5;exitY=1;exitDx=0;exitDy=0;entryX=0;entryY=0.5;entryDx=0;entryDy=0;fontFamily=Courier New;fontStyle=1" parent="1" source="UshZH0G48LZGHxIDffAy-73" target="UshZH0G48LZGHxIDffAy-164" edge="1">
          <mxGeometry relative="1" as="geometry" />
        </mxCell>
        <mxCell id="UshZH0G48LZGHxIDffAy-73" value="print(view_name(username))" style="whiteSpace=wrap;html=1;fontFamily=Courier New;fontStyle=1" parent="1" vertex="1">
          <mxGeometry x="410" y="950" width="160" height="60" as="geometry" />
        </mxCell>
        <mxCell id="UshZH0G48LZGHxIDffAy-74" value="" style="edgeStyle=orthogonalEdgeStyle;rounded=0;orthogonalLoop=1;jettySize=auto;html=1;fontFamily=Courier New;fontStyle=1" parent="1" source="UshZH0G48LZGHxIDffAy-76" target="UshZH0G48LZGHxIDffAy-85" edge="1">
          <mxGeometry relative="1" as="geometry" />
        </mxCell>
        <mxCell id="UshZH0G48LZGHxIDffAy-75" value="" style="edgeStyle=orthogonalEdgeStyle;rounded=0;orthogonalLoop=1;jettySize=auto;html=1;fontFamily=Courier New;fontStyle=1" parent="1" source="UshZH0G48LZGHxIDffAy-76" target="UshZH0G48LZGHxIDffAy-88" edge="1">
          <mxGeometry relative="1" as="geometry" />
        </mxCell>
        <mxCell id="UshZH0G48LZGHxIDffAy-76" value="if cmd == &#39;edit name&#39;" style="rhombus;whiteSpace=wrap;html=1;fontFamily=Courier New;fontStyle=1" parent="1" vertex="1">
          <mxGeometry x="-50" y="840" width="80" height="80" as="geometry" />
        </mxCell>
        <mxCell id="UshZH0G48LZGHxIDffAy-77" style="edgeStyle=orthogonalEdgeStyle;rounded=0;orthogonalLoop=1;jettySize=auto;html=1;exitX=0.5;exitY=1;exitDx=0;exitDy=0;entryX=0;entryY=0.5;entryDx=0;entryDy=0;fontFamily=Courier New;fontStyle=1" parent="1" source="UshZH0G48LZGHxIDffAy-78" target="UshZH0G48LZGHxIDffAy-164" edge="1">
          <mxGeometry relative="1" as="geometry" />
        </mxCell>
        <mxCell id="UshZH0G48LZGHxIDffAy-78" value="print &#39;you are not logged in&#39;" style="shape=parallelogram;perimeter=parallelogramPerimeter;whiteSpace=wrap;html=1;fixedSize=1;fontFamily=Courier New;fontStyle=1" parent="1" vertex="1">
          <mxGeometry x="190" y="1060" width="120" height="60" as="geometry" />
        </mxCell>
        <mxCell id="UshZH0G48LZGHxIDffAy-79" value="" style="edgeStyle=orthogonalEdgeStyle;rounded=0;orthogonalLoop=1;jettySize=auto;html=1;fontFamily=Courier New;fontStyle=1" parent="1" source="UshZH0G48LZGHxIDffAy-80" target="UshZH0G48LZGHxIDffAy-82" edge="1">
          <mxGeometry relative="1" as="geometry" />
        </mxCell>
        <mxCell id="UshZH0G48LZGHxIDffAy-80" value="username = username" style="whiteSpace=wrap;html=1;fontFamily=Courier New;fontStyle=1" parent="1" vertex="1">
          <mxGeometry x="-60" y="1060" width="120" height="60" as="geometry" />
        </mxCell>
        <mxCell id="UshZH0G48LZGHxIDffAy-81" value="" style="edgeStyle=orthogonalEdgeStyle;rounded=0;orthogonalLoop=1;jettySize=auto;html=1;fontFamily=Courier New;fontStyle=1" parent="1" source="UshZH0G48LZGHxIDffAy-82" target="UshZH0G48LZGHxIDffAy-100" edge="1">
          <mxGeometry relative="1" as="geometry" />
        </mxCell>
        <mxCell id="UshZH0G48LZGHxIDffAy-82" value="input new_name" style="shape=parallelogram;perimeter=parallelogramPerimeter;whiteSpace=wrap;html=1;fixedSize=1;fontFamily=Courier New;fontStyle=1" parent="1" vertex="1">
          <mxGeometry x="-60" y="1170" width="120" height="60" as="geometry" />
        </mxCell>
        <mxCell id="UshZH0G48LZGHxIDffAy-83" style="edgeStyle=orthogonalEdgeStyle;rounded=0;orthogonalLoop=1;jettySize=auto;html=1;exitX=1;exitY=0.5;exitDx=0;exitDy=0;fontFamily=Courier New;fontStyle=1" parent="1" source="UshZH0G48LZGHxIDffAy-85" target="UshZH0G48LZGHxIDffAy-78" edge="1">
          <mxGeometry relative="1" as="geometry" />
        </mxCell>
        <mxCell id="UshZH0G48LZGHxIDffAy-84" style="edgeStyle=orthogonalEdgeStyle;rounded=0;orthogonalLoop=1;jettySize=auto;html=1;exitX=0;exitY=0.5;exitDx=0;exitDy=0;entryX=0.5;entryY=0;entryDx=0;entryDy=0;fontFamily=Courier New;fontStyle=1" parent="1" source="UshZH0G48LZGHxIDffAy-85" target="UshZH0G48LZGHxIDffAy-80" edge="1">
          <mxGeometry relative="1" as="geometry" />
        </mxCell>
        <mxCell id="UshZH0G48LZGHxIDffAy-85" value="if not logged_in" style="rhombus;whiteSpace=wrap;html=1;fontFamily=Courier New;fontStyle=1" parent="1" vertex="1">
          <mxGeometry x="90" y="950" width="80" height="80" as="geometry" />
        </mxCell>
        <mxCell id="UshZH0G48LZGHxIDffAy-86" value="" style="edgeStyle=orthogonalEdgeStyle;rounded=0;orthogonalLoop=1;jettySize=auto;html=1;fontFamily=Courier New;fontStyle=1" parent="1" source="UshZH0G48LZGHxIDffAy-88" target="UshZH0G48LZGHxIDffAy-91" edge="1">
          <mxGeometry relative="1" as="geometry" />
        </mxCell>
        <mxCell id="UshZH0G48LZGHxIDffAy-87" value="" style="edgeStyle=orthogonalEdgeStyle;rounded=0;orthogonalLoop=1;jettySize=auto;html=1;fontFamily=Courier New;fontStyle=1" parent="1" source="UshZH0G48LZGHxIDffAy-88" target="UshZH0G48LZGHxIDffAy-106" edge="1">
          <mxGeometry relative="1" as="geometry" />
        </mxCell>
        <mxCell id="UshZH0G48LZGHxIDffAy-88" value="if cmd == &#39;edit username&#39;" style="rhombus;whiteSpace=wrap;html=1;fontFamily=Courier New;fontStyle=1" parent="1" vertex="1">
          <mxGeometry x="-490" y="950" width="80" height="80" as="geometry" />
        </mxCell>
        <mxCell id="UshZH0G48LZGHxIDffAy-89" style="edgeStyle=orthogonalEdgeStyle;rounded=0;orthogonalLoop=1;jettySize=auto;html=1;exitX=1;exitY=0.5;exitDx=0;exitDy=0;entryX=0.5;entryY=0;entryDx=0;entryDy=0;fontFamily=Courier New;fontStyle=1" parent="1" source="UshZH0G48LZGHxIDffAy-91" target="UshZH0G48LZGHxIDffAy-93" edge="1">
          <mxGeometry relative="1" as="geometry" />
        </mxCell>
        <mxCell id="UshZH0G48LZGHxIDffAy-90" value="" style="edgeStyle=orthogonalEdgeStyle;rounded=0;orthogonalLoop=1;jettySize=auto;html=1;fontFamily=Courier New;fontStyle=1" parent="1" source="UshZH0G48LZGHxIDffAy-91" target="UshZH0G48LZGHxIDffAy-95" edge="1">
          <mxGeometry relative="1" as="geometry" />
        </mxCell>
        <mxCell id="UshZH0G48LZGHxIDffAy-91" value="if not logged_in" style="rhombus;whiteSpace=wrap;html=1;fontFamily=Courier New;fontStyle=1" parent="1" vertex="1">
          <mxGeometry x="-380" y="1050" width="80" height="80" as="geometry" />
        </mxCell>
        <mxCell id="UshZH0G48LZGHxIDffAy-92" style="edgeStyle=orthogonalEdgeStyle;rounded=0;orthogonalLoop=1;jettySize=auto;html=1;exitX=0.5;exitY=1;exitDx=0;exitDy=0;entryX=0;entryY=0.5;entryDx=0;entryDy=0;fontFamily=Courier New;fontStyle=1" parent="1" source="UshZH0G48LZGHxIDffAy-93" target="UshZH0G48LZGHxIDffAy-164" edge="1">
          <mxGeometry relative="1" as="geometry" />
        </mxCell>
        <mxCell id="UshZH0G48LZGHxIDffAy-93" value="print &#39;you are not logged in&#39;" style="shape=parallelogram;perimeter=parallelogramPerimeter;whiteSpace=wrap;html=1;fixedSize=1;fontFamily=Courier New;fontStyle=1" parent="1" vertex="1">
          <mxGeometry x="-300" y="1150" width="120" height="60" as="geometry" />
        </mxCell>
        <mxCell id="UshZH0G48LZGHxIDffAy-94" value="" style="edgeStyle=orthogonalEdgeStyle;rounded=0;orthogonalLoop=1;jettySize=auto;html=1;fontFamily=Courier New;fontStyle=1" parent="1" source="UshZH0G48LZGHxIDffAy-95" target="UshZH0G48LZGHxIDffAy-97" edge="1">
          <mxGeometry relative="1" as="geometry" />
        </mxCell>
        <mxCell id="UshZH0G48LZGHxIDffAy-95" value="username = username" style="whiteSpace=wrap;html=1;fontFamily=Courier New;fontStyle=1" parent="1" vertex="1">
          <mxGeometry x="-520" y="1150" width="120" height="60" as="geometry" />
        </mxCell>
        <mxCell id="UshZH0G48LZGHxIDffAy-96" value="" style="edgeStyle=orthogonalEdgeStyle;rounded=0;orthogonalLoop=1;jettySize=auto;html=1;entryX=0.5;entryY=0;entryDx=0;entryDy=0;fontFamily=Courier New;fontStyle=1" parent="1" source="UshZH0G48LZGHxIDffAy-97" target="UshZH0G48LZGHxIDffAy-135" edge="1">
          <mxGeometry relative="1" as="geometry">
            <mxPoint x="-460" y="1390" as="targetPoint" />
          </mxGeometry>
        </mxCell>
        <mxCell id="UshZH0G48LZGHxIDffAy-97" value="input new_username" style="shape=parallelogram;perimeter=parallelogramPerimeter;whiteSpace=wrap;html=1;fixedSize=1;fontFamily=Courier New;fontStyle=1" parent="1" vertex="1">
          <mxGeometry x="-535" y="1270" width="150" height="60" as="geometry" />
        </mxCell>
        <mxCell id="UshZH0G48LZGHxIDffAy-98" value="" style="group;fontFamily=Courier New;fontStyle=1" parent="1" vertex="1" connectable="0">
          <mxGeometry x="-90" y="1280" width="180" height="60" as="geometry" />
        </mxCell>
        <mxCell id="UshZH0G48LZGHxIDffAy-99" value="" style="rounded=0;whiteSpace=wrap;html=1;fontFamily=Courier New;fontStyle=1" parent="UshZH0G48LZGHxIDffAy-98" vertex="1">
          <mxGeometry width="180" height="60" as="geometry" />
        </mxCell>
        <mxCell id="UshZH0G48LZGHxIDffAy-100" value="edit_name(username, new_name)" style="whiteSpace=wrap;html=1;fontFamily=Courier New;fontStyle=1" parent="UshZH0G48LZGHxIDffAy-98" vertex="1">
          <mxGeometry x="30" width="120" height="60" as="geometry" />
        </mxCell>
        <mxCell id="UshZH0G48LZGHxIDffAy-101" style="edgeStyle=orthogonalEdgeStyle;rounded=0;orthogonalLoop=1;jettySize=auto;html=1;exitX=0.5;exitY=1;exitDx=0;exitDy=0;entryX=0;entryY=0.5;entryDx=0;entryDy=0;fontFamily=Courier New;fontStyle=1" parent="1" source="UshZH0G48LZGHxIDffAy-102" target="UshZH0G48LZGHxIDffAy-164" edge="1">
          <mxGeometry relative="1" as="geometry" />
        </mxCell>
        <mxCell id="UshZH0G48LZGHxIDffAy-102" value="username = new_username" style="whiteSpace=wrap;html=1;fontFamily=Courier New;fontStyle=1" parent="1" vertex="1">
          <mxGeometry x="-520" y="1500" width="120" height="60" as="geometry" />
        </mxCell>
        <mxCell id="UshZH0G48LZGHxIDffAy-103" value="" style="edgeStyle=orthogonalEdgeStyle;rounded=0;orthogonalLoop=1;jettySize=auto;html=1;fontFamily=Courier New;fontStyle=1" parent="1" source="UshZH0G48LZGHxIDffAy-135" target="UshZH0G48LZGHxIDffAy-102" edge="1">
          <mxGeometry relative="1" as="geometry" />
        </mxCell>
        <mxCell id="UshZH0G48LZGHxIDffAy-104" style="edgeStyle=orthogonalEdgeStyle;rounded=0;orthogonalLoop=1;jettySize=auto;html=1;exitX=1;exitY=0.5;exitDx=0;exitDy=0;entryX=0.5;entryY=0;entryDx=0;entryDy=0;fontFamily=Courier New;fontStyle=1" parent="1" source="UshZH0G48LZGHxIDffAy-106" target="UshZH0G48LZGHxIDffAy-109" edge="1">
          <mxGeometry relative="1" as="geometry" />
        </mxCell>
        <mxCell id="UshZH0G48LZGHxIDffAy-105" value="" style="edgeStyle=orthogonalEdgeStyle;rounded=0;orthogonalLoop=1;jettySize=auto;html=1;fontFamily=Courier New;fontStyle=1" parent="1" source="UshZH0G48LZGHxIDffAy-106" target="UshZH0G48LZGHxIDffAy-119" edge="1">
          <mxGeometry relative="1" as="geometry" />
        </mxCell>
        <mxCell id="UshZH0G48LZGHxIDffAy-106" value="if cmd == &#39;check balance&#39;" style="rhombus;whiteSpace=wrap;html=1;fontFamily=Courier New;fontStyle=1" parent="1" vertex="1">
          <mxGeometry x="-910" y="1040" width="80" height="80" as="geometry" />
        </mxCell>
        <mxCell id="UshZH0G48LZGHxIDffAy-107" style="edgeStyle=orthogonalEdgeStyle;rounded=0;orthogonalLoop=1;jettySize=auto;html=1;exitX=1;exitY=0.5;exitDx=0;exitDy=0;entryX=0.5;entryY=0;entryDx=0;entryDy=0;fontFamily=Courier New;fontStyle=1" parent="1" source="UshZH0G48LZGHxIDffAy-109" target="UshZH0G48LZGHxIDffAy-111" edge="1">
          <mxGeometry relative="1" as="geometry" />
        </mxCell>
        <mxCell id="UshZH0G48LZGHxIDffAy-108" value="" style="edgeStyle=orthogonalEdgeStyle;rounded=0;orthogonalLoop=1;jettySize=auto;html=1;fontFamily=Courier New;fontStyle=1" parent="1" source="UshZH0G48LZGHxIDffAy-109" target="UshZH0G48LZGHxIDffAy-113" edge="1">
          <mxGeometry relative="1" as="geometry" />
        </mxCell>
        <mxCell id="UshZH0G48LZGHxIDffAy-109" value="if not logged_in" style="rhombus;whiteSpace=wrap;html=1;fontFamily=Courier New;fontStyle=1" parent="1" vertex="1">
          <mxGeometry x="-800" y="1130" width="80" height="80" as="geometry" />
        </mxCell>
        <mxCell id="UshZH0G48LZGHxIDffAy-110" style="edgeStyle=orthogonalEdgeStyle;rounded=0;orthogonalLoop=1;jettySize=auto;html=1;exitX=0.5;exitY=1;exitDx=0;exitDy=0;entryX=0;entryY=0.5;entryDx=0;entryDy=0;fontFamily=Courier New;fontStyle=1" parent="1" source="UshZH0G48LZGHxIDffAy-111" target="UshZH0G48LZGHxIDffAy-164" edge="1">
          <mxGeometry relative="1" as="geometry" />
        </mxCell>
        <mxCell id="UshZH0G48LZGHxIDffAy-111" value="print &#39;you are not logged in&#39;" style="shape=parallelogram;perimeter=parallelogramPerimeter;whiteSpace=wrap;html=1;fixedSize=1;fontFamily=Courier New;fontStyle=1" parent="1" vertex="1">
          <mxGeometry x="-720" y="1240" width="120" height="60" as="geometry" />
        </mxCell>
        <mxCell id="UshZH0G48LZGHxIDffAy-112" style="edgeStyle=orthogonalEdgeStyle;rounded=0;orthogonalLoop=1;jettySize=auto;html=1;exitX=0.5;exitY=1;exitDx=0;exitDy=0;fontFamily=Courier New;fontStyle=1" parent="1" source="UshZH0G48LZGHxIDffAy-113" target="UshZH0G48LZGHxIDffAy-116" edge="1">
          <mxGeometry relative="1" as="geometry" />
        </mxCell>
        <mxCell id="UshZH0G48LZGHxIDffAy-113" value="username = username" style="whiteSpace=wrap;html=1;fontFamily=Courier New;fontStyle=1" parent="1" vertex="1">
          <mxGeometry x="-930" y="1230" width="120" height="60" as="geometry" />
        </mxCell>
        <mxCell id="UshZH0G48LZGHxIDffAy-114" value="" style="group;fontFamily=Courier New;fontStyle=1" parent="1" vertex="1" connectable="0">
          <mxGeometry x="-980" y="1340" width="690" height="60" as="geometry" />
        </mxCell>
        <mxCell id="UshZH0G48LZGHxIDffAy-115" value="" style="rounded=0;whiteSpace=wrap;html=1;fontFamily=Courier New;fontStyle=1" parent="UshZH0G48LZGHxIDffAy-114" vertex="1">
          <mxGeometry width="220" height="60" as="geometry" />
        </mxCell>
        <mxCell id="UshZH0G48LZGHxIDffAy-116" value="check_balance(username)" style="whiteSpace=wrap;html=1;fontFamily=Courier New;fontStyle=1" parent="UshZH0G48LZGHxIDffAy-114" vertex="1">
          <mxGeometry x="36.66666666666667" width="146.66666666666669" height="60" as="geometry" />
        </mxCell>
        <mxCell id="UshZH0G48LZGHxIDffAy-117" style="edgeStyle=orthogonalEdgeStyle;rounded=0;orthogonalLoop=1;jettySize=auto;html=1;exitX=1;exitY=0.5;exitDx=0;exitDy=0;entryX=0.5;entryY=0;entryDx=0;entryDy=0;fontFamily=Courier New;fontStyle=1" parent="1" source="UshZH0G48LZGHxIDffAy-119" target="UshZH0G48LZGHxIDffAy-122" edge="1">
          <mxGeometry relative="1" as="geometry" />
        </mxCell>
        <mxCell id="UshZH0G48LZGHxIDffAy-118" value="" style="edgeStyle=orthogonalEdgeStyle;rounded=0;orthogonalLoop=1;jettySize=auto;html=1;fontFamily=Courier New;fontStyle=1" parent="1" source="UshZH0G48LZGHxIDffAy-119" target="UshZH0G48LZGHxIDffAy-141" edge="1">
          <mxGeometry relative="1" as="geometry" />
        </mxCell>
        <mxCell id="UshZH0G48LZGHxIDffAy-119" value="if cmd == &#39;reload balance&#39;" style="rhombus;whiteSpace=wrap;html=1;fontFamily=Courier New;fontStyle=1" parent="1" vertex="1">
          <mxGeometry x="-1350" y="1130" width="80" height="80" as="geometry" />
        </mxCell>
        <mxCell id="UshZH0G48LZGHxIDffAy-120" style="edgeStyle=orthogonalEdgeStyle;rounded=0;orthogonalLoop=1;jettySize=auto;html=1;exitX=1;exitY=0.5;exitDx=0;exitDy=0;entryX=0.5;entryY=0;entryDx=0;entryDy=0;fontFamily=Courier New;fontStyle=1" parent="1" source="UshZH0G48LZGHxIDffAy-122" target="UshZH0G48LZGHxIDffAy-124" edge="1">
          <mxGeometry relative="1" as="geometry" />
        </mxCell>
        <mxCell id="UshZH0G48LZGHxIDffAy-121" value="" style="edgeStyle=orthogonalEdgeStyle;rounded=0;orthogonalLoop=1;jettySize=auto;html=1;fontFamily=Courier New;fontStyle=1" parent="1" source="UshZH0G48LZGHxIDffAy-122" target="UshZH0G48LZGHxIDffAy-126" edge="1">
          <mxGeometry relative="1" as="geometry" />
        </mxCell>
        <mxCell id="UshZH0G48LZGHxIDffAy-122" value="if not logged_in" style="rhombus;whiteSpace=wrap;html=1;fontFamily=Courier New;fontStyle=1" parent="1" vertex="1">
          <mxGeometry x="-1230" y="1220" width="80" height="80" as="geometry" />
        </mxCell>
        <mxCell id="UshZH0G48LZGHxIDffAy-123" style="edgeStyle=orthogonalEdgeStyle;rounded=0;orthogonalLoop=1;jettySize=auto;html=1;entryX=0;entryY=0.5;entryDx=0;entryDy=0;fontFamily=Courier New;fontStyle=1" parent="1" source="UshZH0G48LZGHxIDffAy-124" target="UshZH0G48LZGHxIDffAy-164" edge="1">
          <mxGeometry relative="1" as="geometry">
            <Array as="points">
              <mxPoint x="-1080" y="1893" />
              <mxPoint x="200" y="1893" />
            </Array>
          </mxGeometry>
        </mxCell>
        <mxCell id="UshZH0G48LZGHxIDffAy-124" value="print &#39;you are not logged in&#39;" style="shape=parallelogram;perimeter=parallelogramPerimeter;whiteSpace=wrap;html=1;fixedSize=1;fontFamily=Courier New;fontStyle=1" parent="1" vertex="1">
          <mxGeometry x="-1140" y="1340" width="120" height="60" as="geometry" />
        </mxCell>
        <mxCell id="UshZH0G48LZGHxIDffAy-125" value="" style="edgeStyle=orthogonalEdgeStyle;rounded=0;orthogonalLoop=1;jettySize=auto;html=1;fontFamily=Courier New;fontStyle=1" parent="1" source="UshZH0G48LZGHxIDffAy-126" target="UshZH0G48LZGHxIDffAy-128" edge="1">
          <mxGeometry relative="1" as="geometry" />
        </mxCell>
        <mxCell id="UshZH0G48LZGHxIDffAy-126" value="username = username" style="whiteSpace=wrap;html=1;fontFamily=Courier New;fontStyle=1" parent="1" vertex="1">
          <mxGeometry x="-1370" y="1340" width="120" height="60" as="geometry" />
        </mxCell>
        <mxCell id="UshZH0G48LZGHxIDffAy-127" value="" style="edgeStyle=orthogonalEdgeStyle;rounded=0;orthogonalLoop=1;jettySize=auto;html=1;fontFamily=Courier New;fontStyle=1" parent="1" source="UshZH0G48LZGHxIDffAy-128" target="UshZH0G48LZGHxIDffAy-132" edge="1">
          <mxGeometry relative="1" as="geometry" />
        </mxCell>
        <mxCell id="UshZH0G48LZGHxIDffAy-128" value="input amount" style="whiteSpace=wrap;html=1;fontFamily=Courier New;fontStyle=1" parent="1" vertex="1">
          <mxGeometry x="-1370" y="1480" width="120" height="60" as="geometry" />
        </mxCell>
        <mxCell id="UshZH0G48LZGHxIDffAy-129" value="REPEAT" style="text;html=1;align=center;verticalAlign=middle;whiteSpace=wrap;rounded=0;fontFamily=Courier New;fontStyle=1" parent="1" vertex="1">
          <mxGeometry x="-1300" y="1430" width="60" height="30" as="geometry" />
        </mxCell>
        <mxCell id="UshZH0G48LZGHxIDffAy-130" style="edgeStyle=orthogonalEdgeStyle;rounded=0;orthogonalLoop=1;jettySize=auto;html=1;exitX=0;exitY=0.5;exitDx=0;exitDy=0;entryX=0;entryY=0.5;entryDx=0;entryDy=0;fontFamily=Courier New;fontStyle=1" parent="1" source="UshZH0G48LZGHxIDffAy-132" target="UshZH0G48LZGHxIDffAy-128" edge="1">
          <mxGeometry relative="1" as="geometry" />
        </mxCell>
        <mxCell id="UshZH0G48LZGHxIDffAy-131" style="edgeStyle=orthogonalEdgeStyle;rounded=0;orthogonalLoop=1;jettySize=auto;html=1;exitX=0.5;exitY=1;exitDx=0;exitDy=0;entryX=0.5;entryY=0;entryDx=0;entryDy=0;fontFamily=Courier New;fontStyle=1" parent="1" source="UshZH0G48LZGHxIDffAy-132" target="UshZH0G48LZGHxIDffAy-138" edge="1">
          <mxGeometry relative="1" as="geometry" />
        </mxCell>
        <mxCell id="UshZH0G48LZGHxIDffAy-132" value="until (amount.isdigit()&lt;br&gt;and amount &amp;gt; 0)or&lt;br&gt;amount == &#39;cancel&#39;" style="rhombus;whiteSpace=wrap;html=1;fontFamily=Courier New;fontStyle=1" parent="1" vertex="1">
          <mxGeometry x="-1387.5" y="1610" width="155" height="110" as="geometry" />
        </mxCell>
        <mxCell id="UshZH0G48LZGHxIDffAy-133" value="" style="group;fontFamily=Courier New;fontStyle=1" parent="1" vertex="1" connectable="0">
          <mxGeometry x="-570" y="1380" width="220" height="60" as="geometry" />
        </mxCell>
        <mxCell id="UshZH0G48LZGHxIDffAy-134" value="" style="rounded=0;whiteSpace=wrap;html=1;fontFamily=Courier New;fontStyle=1" parent="UshZH0G48LZGHxIDffAy-133" vertex="1">
          <mxGeometry width="220" height="60" as="geometry" />
        </mxCell>
        <mxCell id="UshZH0G48LZGHxIDffAy-135" value="edit_username(username, new_name)" style="whiteSpace=wrap;html=1;fontFamily=Courier New;fontStyle=1" parent="UshZH0G48LZGHxIDffAy-133" vertex="1">
          <mxGeometry x="36.66666666666663" width="146.66666666666669" height="60" as="geometry" />
        </mxCell>
        <mxCell id="UshZH0G48LZGHxIDffAy-136" value="" style="group;fontFamily=Courier New;fontStyle=1" parent="1" vertex="1" connectable="0">
          <mxGeometry x="-1420" y="1780" width="220" height="60" as="geometry" />
        </mxCell>
        <mxCell id="UshZH0G48LZGHxIDffAy-137" value="" style="rounded=0;whiteSpace=wrap;html=1;fontFamily=Courier New;fontStyle=1" parent="UshZH0G48LZGHxIDffAy-136" vertex="1">
          <mxGeometry width="220" height="60" as="geometry" />
        </mxCell>
        <mxCell id="UshZH0G48LZGHxIDffAy-138" value="reload_balance(username, amount)" style="whiteSpace=wrap;html=1;fontFamily=Courier New;fontStyle=1" parent="UshZH0G48LZGHxIDffAy-136" vertex="1">
          <mxGeometry x="10" width="200" height="60" as="geometry" />
        </mxCell>
        <mxCell id="UshZH0G48LZGHxIDffAy-139" style="edgeStyle=orthogonalEdgeStyle;rounded=0;orthogonalLoop=1;jettySize=auto;html=1;exitX=1;exitY=0.5;exitDx=0;exitDy=0;entryX=0.5;entryY=0;entryDx=0;entryDy=0;fontFamily=Courier New;fontStyle=1" parent="1" source="UshZH0G48LZGHxIDffAy-141" target="UshZH0G48LZGHxIDffAy-144" edge="1">
          <mxGeometry relative="1" as="geometry" />
        </mxCell>
        <mxCell id="UshZH0G48LZGHxIDffAy-140" value="" style="edgeStyle=orthogonalEdgeStyle;rounded=0;orthogonalLoop=1;jettySize=auto;html=1;fontFamily=Courier New;fontStyle=1" parent="1" source="UshZH0G48LZGHxIDffAy-141" target="UshZH0G48LZGHxIDffAy-152" edge="1">
          <mxGeometry relative="1" as="geometry" />
        </mxCell>
        <mxCell id="UshZH0G48LZGHxIDffAy-141" value="if cmd == &#39;fare calculator&#39; or cmd == &#39;fare&#39; or cmd == &#39;fare calc&#39;" style="rhombus;whiteSpace=wrap;html=1;fontFamily=Courier New;fontStyle=1" parent="1" vertex="1">
          <mxGeometry x="-1820" y="1225" width="130" height="150" as="geometry" />
        </mxCell>
        <mxCell id="UshZH0G48LZGHxIDffAy-142" style="edgeStyle=orthogonalEdgeStyle;rounded=0;orthogonalLoop=1;jettySize=auto;html=1;exitX=1;exitY=0.5;exitDx=0;exitDy=0;entryX=0.5;entryY=0;entryDx=0;entryDy=0;fontFamily=Courier New;fontStyle=1" parent="1" source="UshZH0G48LZGHxIDffAy-144" target="UshZH0G48LZGHxIDffAy-146" edge="1">
          <mxGeometry relative="1" as="geometry" />
        </mxCell>
        <mxCell id="UshZH0G48LZGHxIDffAy-143" style="edgeStyle=orthogonalEdgeStyle;rounded=0;orthogonalLoop=1;jettySize=auto;html=1;exitX=0;exitY=0.5;exitDx=0;exitDy=0;entryX=0.5;entryY=0;entryDx=0;entryDy=0;fontFamily=Courier New;fontStyle=1" parent="1" source="UshZH0G48LZGHxIDffAy-144" target="UshZH0G48LZGHxIDffAy-149" edge="1">
          <mxGeometry relative="1" as="geometry" />
        </mxCell>
        <mxCell id="UshZH0G48LZGHxIDffAy-144" value="if not logged_in" style="rhombus;whiteSpace=wrap;html=1;fontFamily=Courier New;fontStyle=1" parent="1" vertex="1">
          <mxGeometry x="-1650" y="1355" width="80" height="80" as="geometry" />
        </mxCell>
        <mxCell id="UshZH0G48LZGHxIDffAy-145" style="edgeStyle=orthogonalEdgeStyle;rounded=0;orthogonalLoop=1;jettySize=auto;html=1;exitX=0.5;exitY=1;exitDx=0;exitDy=0;entryX=0;entryY=0.5;entryDx=0;entryDy=0;fontFamily=Courier New;fontStyle=1" parent="1" source="UshZH0G48LZGHxIDffAy-146" target="UshZH0G48LZGHxIDffAy-164" edge="1">
          <mxGeometry relative="1" as="geometry" />
        </mxCell>
        <mxCell id="UshZH0G48LZGHxIDffAy-146" value="print &#39;you are not logged in&#39;" style="shape=parallelogram;perimeter=parallelogramPerimeter;whiteSpace=wrap;html=1;fixedSize=1;fontFamily=Courier New;fontStyle=1" parent="1" vertex="1">
          <mxGeometry x="-1570" y="1470" width="120" height="60" as="geometry" />
        </mxCell>
        <mxCell id="UshZH0G48LZGHxIDffAy-147" value="" style="group;fontFamily=Courier New;fontStyle=1" parent="1" vertex="1" connectable="0">
          <mxGeometry x="-1865" y="1470" width="220" height="60" as="geometry" />
        </mxCell>
        <mxCell id="UshZH0G48LZGHxIDffAy-148" value="" style="rounded=0;whiteSpace=wrap;html=1;fontFamily=Courier New;fontStyle=1" parent="UshZH0G48LZGHxIDffAy-147" vertex="1">
          <mxGeometry width="220" height="60" as="geometry" />
        </mxCell>
        <mxCell id="UshZH0G48LZGHxIDffAy-149" value="fare_calculator()" style="whiteSpace=wrap;html=1;fontFamily=Courier New;fontStyle=1" parent="UshZH0G48LZGHxIDffAy-147" vertex="1">
          <mxGeometry x="36.66666666666663" width="146.66666666666669" height="60" as="geometry" />
        </mxCell>
        <mxCell id="UshZH0G48LZGHxIDffAy-150" style="edgeStyle=orthogonalEdgeStyle;rounded=0;orthogonalLoop=1;jettySize=auto;html=1;exitX=1;exitY=0.5;exitDx=0;exitDy=0;fontFamily=Courier New;fontStyle=1" parent="1" source="UshZH0G48LZGHxIDffAy-152" target="UshZH0G48LZGHxIDffAy-155" edge="1">
          <mxGeometry relative="1" as="geometry" />
        </mxCell>
        <mxCell id="UshZH0G48LZGHxIDffAy-151" value="" style="edgeStyle=orthogonalEdgeStyle;rounded=0;orthogonalLoop=1;jettySize=auto;html=1;fontFamily=Courier New;fontStyle=1" parent="1" source="UshZH0G48LZGHxIDffAy-152" target="UshZH0G48LZGHxIDffAy-158" edge="1">
          <mxGeometry relative="1" as="geometry" />
        </mxCell>
        <mxCell id="UshZH0G48LZGHxIDffAy-152" value="if cmd == &#39;admin&#39;" style="rhombus;whiteSpace=wrap;html=1;fontFamily=Courier New;fontStyle=1" parent="1" vertex="1">
          <mxGeometry x="-2260" y="1405" width="80" height="80" as="geometry" />
        </mxCell>
        <mxCell id="UshZH0G48LZGHxIDffAy-153" value="" style="group;fontFamily=Courier New;fontStyle=1" parent="1" vertex="1" connectable="0">
          <mxGeometry x="-2180" y="1500" width="220" height="60" as="geometry" />
        </mxCell>
        <mxCell id="UshZH0G48LZGHxIDffAy-154" value="" style="rounded=0;whiteSpace=wrap;html=1;fontFamily=Courier New;fontStyle=1" parent="UshZH0G48LZGHxIDffAy-153" vertex="1">
          <mxGeometry width="220" height="60" as="geometry" />
        </mxCell>
        <mxCell id="UshZH0G48LZGHxIDffAy-155" value="admin()" style="whiteSpace=wrap;html=1;fontFamily=Courier New;fontStyle=1" parent="UshZH0G48LZGHxIDffAy-153" vertex="1">
          <mxGeometry x="36.66666666666663" width="146.66666666666669" height="60" as="geometry" />
        </mxCell>
        <mxCell id="UshZH0G48LZGHxIDffAy-156" value="" style="edgeStyle=orthogonalEdgeStyle;rounded=0;orthogonalLoop=1;jettySize=auto;html=1;fontFamily=Courier New;fontStyle=1" parent="1" source="UshZH0G48LZGHxIDffAy-158" target="UshZH0G48LZGHxIDffAy-160" edge="1">
          <mxGeometry relative="1" as="geometry" />
        </mxCell>
        <mxCell id="UshZH0G48LZGHxIDffAy-157" value="" style="edgeStyle=orthogonalEdgeStyle;rounded=0;orthogonalLoop=1;jettySize=auto;html=1;fontFamily=Courier New;fontStyle=1" parent="1" source="UshZH0G48LZGHxIDffAy-158" target="UshZH0G48LZGHxIDffAy-162" edge="1">
          <mxGeometry relative="1" as="geometry" />
        </mxCell>
        <mxCell id="UshZH0G48LZGHxIDffAy-158" value="cmd == &#39;help&#39;" style="rhombus;whiteSpace=wrap;html=1;fontFamily=Courier New;fontStyle=1" parent="1" vertex="1">
          <mxGeometry x="-2450" y="1490" width="80" height="80" as="geometry" />
        </mxCell>
        <mxCell id="UshZH0G48LZGHxIDffAy-159" style="edgeStyle=orthogonalEdgeStyle;rounded=0;orthogonalLoop=1;jettySize=auto;html=1;exitX=0.5;exitY=1;exitDx=0;exitDy=0;entryX=0;entryY=0.5;entryDx=0;entryDy=0;fontFamily=Courier New;fontStyle=1" parent="1" source="UshZH0G48LZGHxIDffAy-160" target="UshZH0G48LZGHxIDffAy-164" edge="1">
          <mxGeometry relative="1" as="geometry">
            <mxPoint x="1150" y="2260" as="targetPoint" />
          </mxGeometry>
        </mxCell>
        <mxCell id="UshZH0G48LZGHxIDffAy-160" value="print help" style="shape=parallelogram;perimeter=parallelogramPerimeter;whiteSpace=wrap;html=1;fixedSize=1;fontFamily=Courier New;fontStyle=1" parent="1" vertex="1">
          <mxGeometry x="-2350" y="1600" width="120" height="60" as="geometry" />
        </mxCell>
        <mxCell id="UshZH0G48LZGHxIDffAy-161" style="edgeStyle=orthogonalEdgeStyle;rounded=0;orthogonalLoop=1;jettySize=auto;html=1;exitX=0.5;exitY=1;exitDx=0;exitDy=0;entryX=0;entryY=0.5;entryDx=0;entryDy=0;fontFamily=Courier New;fontStyle=1" parent="1" source="UshZH0G48LZGHxIDffAy-162" target="UshZH0G48LZGHxIDffAy-164" edge="1">
          <mxGeometry relative="1" as="geometry">
            <mxPoint x="1410" y="1980" as="targetPoint" />
          </mxGeometry>
        </mxCell>
        <mxCell id="UshZH0G48LZGHxIDffAy-162" value="print &#39;invalid command&#39;" style="shape=parallelogram;perimeter=parallelogramPerimeter;whiteSpace=wrap;html=1;fixedSize=1;fontFamily=Courier New;fontStyle=1" parent="1" vertex="1">
          <mxGeometry x="-2650" y="1600" width="120" height="60" as="geometry" />
        </mxCell>
        <mxCell id="UshZH0G48LZGHxIDffAy-163" value="" style="edgeStyle=orthogonalEdgeStyle;rounded=0;orthogonalLoop=1;jettySize=auto;html=1;fontFamily=Courier New;fontStyle=1" parent="1" source="UshZH0G48LZGHxIDffAy-164" target="UshZH0G48LZGHxIDffAy-271" edge="1">
          <mxGeometry relative="1" as="geometry" />
        </mxCell>
        <mxCell id="UshZH0G48LZGHxIDffAy-164" value="" style="ellipse;whiteSpace=wrap;html=1;aspect=fixed;fontFamily=Courier New;fontStyle=1" parent="1" vertex="1">
          <mxGeometry x="1422.5" y="1885" width="15" height="15" as="geometry" />
        </mxCell>
        <mxCell id="UshZH0G48LZGHxIDffAy-165" style="edgeStyle=orthogonalEdgeStyle;rounded=0;orthogonalLoop=1;jettySize=auto;html=1;exitX=0.5;exitY=1;exitDx=0;exitDy=0;entryX=0;entryY=0.5;entryDx=0;entryDy=0;fontFamily=Courier New;fontStyle=1" parent="1" source="UshZH0G48LZGHxIDffAy-100" target="UshZH0G48LZGHxIDffAy-164" edge="1">
          <mxGeometry relative="1" as="geometry" />
        </mxCell>
        <mxCell id="UshZH0G48LZGHxIDffAy-166" style="edgeStyle=orthogonalEdgeStyle;rounded=0;orthogonalLoop=1;jettySize=auto;html=1;exitX=0.5;exitY=1;exitDx=0;exitDy=0;entryX=0;entryY=0.5;entryDx=0;entryDy=0;fontFamily=Courier New;fontStyle=1" parent="1" source="UshZH0G48LZGHxIDffAy-116" target="UshZH0G48LZGHxIDffAy-164" edge="1">
          <mxGeometry relative="1" as="geometry" />
        </mxCell>
        <mxCell id="UshZH0G48LZGHxIDffAy-167" style="edgeStyle=orthogonalEdgeStyle;rounded=0;orthogonalLoop=1;jettySize=auto;html=1;exitX=0.5;exitY=1;exitDx=0;exitDy=0;entryX=0;entryY=0.5;entryDx=0;entryDy=0;fontFamily=Courier New;fontStyle=1" parent="1" source="UshZH0G48LZGHxIDffAy-138" target="UshZH0G48LZGHxIDffAy-164" edge="1">
          <mxGeometry relative="1" as="geometry" />
        </mxCell>
        <mxCell id="UshZH0G48LZGHxIDffAy-168" style="edgeStyle=orthogonalEdgeStyle;rounded=0;orthogonalLoop=1;jettySize=auto;html=1;exitX=0.5;exitY=1;exitDx=0;exitDy=0;entryX=0;entryY=0.5;entryDx=0;entryDy=0;fontFamily=Courier New;fontStyle=1" parent="1" source="UshZH0G48LZGHxIDffAy-149" target="UshZH0G48LZGHxIDffAy-164" edge="1">
          <mxGeometry relative="1" as="geometry" />
        </mxCell>
        <mxCell id="UshZH0G48LZGHxIDffAy-169" style="edgeStyle=orthogonalEdgeStyle;rounded=0;orthogonalLoop=1;jettySize=auto;html=1;exitX=0.5;exitY=1;exitDx=0;exitDy=0;entryX=0;entryY=0.5;entryDx=0;entryDy=0;fontFamily=Courier New;fontStyle=1" parent="1" source="UshZH0G48LZGHxIDffAy-155" target="UshZH0G48LZGHxIDffAy-164" edge="1">
          <mxGeometry relative="1" as="geometry">
            <mxPoint x="1380" y="2000" as="targetPoint" />
          </mxGeometry>
        </mxCell>
        <mxCell id="UshZH0G48LZGHxIDffAy-170" value="" style="edgeStyle=orthogonalEdgeStyle;rounded=0;orthogonalLoop=1;jettySize=auto;html=1;fontFamily=Courier New;fontStyle=1" parent="1" source="UshZH0G48LZGHxIDffAy-171" target="UshZH0G48LZGHxIDffAy-173" edge="1">
          <mxGeometry relative="1" as="geometry" />
        </mxCell>
        <mxCell id="UshZH0G48LZGHxIDffAy-171" value="register (username, password, name)" style="ellipse;whiteSpace=wrap;html=1;fontFamily=Courier New;fontStyle=1" parent="1" vertex="1">
          <mxGeometry x="2295" width="120" height="80" as="geometry" />
        </mxCell>
        <mxCell id="UshZH0G48LZGHxIDffAy-172" value="" style="edgeStyle=orthogonalEdgeStyle;rounded=0;orthogonalLoop=1;jettySize=auto;html=1;fontFamily=Courier New;fontStyle=1" parent="1" source="UshZH0G48LZGHxIDffAy-173" target="UshZH0G48LZGHxIDffAy-175" edge="1">
          <mxGeometry relative="1" as="geometry" />
        </mxCell>
        <mxCell id="UshZH0G48LZGHxIDffAy-173" value="query = EXECUTE &quot;SELECT username FROM account WHERE username = ?&quot; WITH (username)" style="whiteSpace=wrap;html=1;fontFamily=Courier New;fontStyle=1" parent="1" vertex="1">
          <mxGeometry x="2295" y="120" width="120" height="80" as="geometry" />
        </mxCell>
        <mxCell id="UshZH0G48LZGHxIDffAy-174" value="" style="edgeStyle=orthogonalEdgeStyle;rounded=0;orthogonalLoop=1;jettySize=auto;html=1;fontFamily=Courier New;fontStyle=1" parent="1" source="UshZH0G48LZGHxIDffAy-175" target="UshZH0G48LZGHxIDffAy-178" edge="1">
          <mxGeometry relative="1" as="geometry" />
        </mxCell>
        <mxCell id="UshZH0G48LZGHxIDffAy-175" value="row = query" style="whiteSpace=wrap;html=1;fontFamily=Courier New;fontStyle=1" parent="1" vertex="1">
          <mxGeometry x="2295" y="240" width="120" height="60" as="geometry" />
        </mxCell>
        <mxCell id="UshZH0G48LZGHxIDffAy-176" value="" style="edgeStyle=orthogonalEdgeStyle;rounded=0;orthogonalLoop=1;jettySize=auto;html=1;fontFamily=Courier New;fontStyle=1" parent="1" source="UshZH0G48LZGHxIDffAy-178" target="UshZH0G48LZGHxIDffAy-180" edge="1">
          <mxGeometry relative="1" as="geometry" />
        </mxCell>
        <mxCell id="UshZH0G48LZGHxIDffAy-177" value="" style="edgeStyle=orthogonalEdgeStyle;rounded=0;orthogonalLoop=1;jettySize=auto;html=1;exitX=0;exitY=0.5;exitDx=0;exitDy=0;fontFamily=Courier New;fontStyle=1" parent="1" source="UshZH0G48LZGHxIDffAy-178" target="UshZH0G48LZGHxIDffAy-183" edge="1">
          <mxGeometry relative="1" as="geometry" />
        </mxCell>
        <mxCell id="UshZH0G48LZGHxIDffAy-178" value="if row" style="rhombus;whiteSpace=wrap;html=1;fontFamily=Courier New;fontStyle=1" parent="1" vertex="1">
          <mxGeometry x="2315" y="330" width="80" height="80" as="geometry" />
        </mxCell>
        <mxCell id="UshZH0G48LZGHxIDffAy-179" value="" style="edgeStyle=orthogonalEdgeStyle;rounded=0;orthogonalLoop=1;jettySize=auto;html=1;fontFamily=Courier New;fontStyle=1" parent="1" source="UshZH0G48LZGHxIDffAy-180" target="UshZH0G48LZGHxIDffAy-191" edge="1">
          <mxGeometry relative="1" as="geometry" />
        </mxCell>
        <mxCell id="UshZH0G48LZGHxIDffAy-180" value="print &quot;Username is taken&quot;" style="whiteSpace=wrap;html=1;fontFamily=Courier New;fontStyle=1" parent="1" vertex="1">
          <mxGeometry x="2430" y="420" width="120" height="60" as="geometry" />
        </mxCell>
        <mxCell id="UshZH0G48LZGHxIDffAy-181" value="TRUE" style="text;html=1;align=center;verticalAlign=middle;whiteSpace=wrap;rounded=0;fontFamily=Courier New;fontStyle=1" parent="1" vertex="1">
          <mxGeometry x="2395" y="340" width="60" height="30" as="geometry" />
        </mxCell>
        <mxCell id="UshZH0G48LZGHxIDffAy-182" value="" style="edgeStyle=orthogonalEdgeStyle;rounded=0;orthogonalLoop=1;jettySize=auto;html=1;fontFamily=Courier New;fontStyle=1" parent="1" source="UshZH0G48LZGHxIDffAy-183" target="UshZH0G48LZGHxIDffAy-185" edge="1">
          <mxGeometry relative="1" as="geometry" />
        </mxCell>
        <mxCell id="UshZH0G48LZGHxIDffAy-183" value="password = SHA256(password) -&amp;gt; Hex" style="whiteSpace=wrap;html=1;fontFamily=Courier New;fontStyle=1" parent="1" vertex="1">
          <mxGeometry x="2060" y="420" width="220" height="60" as="geometry" />
        </mxCell>
        <mxCell id="UshZH0G48LZGHxIDffAy-184" value="" style="edgeStyle=orthogonalEdgeStyle;rounded=0;orthogonalLoop=1;jettySize=auto;html=1;fontFamily=Courier New;fontStyle=1" parent="1" source="UshZH0G48LZGHxIDffAy-185" target="UshZH0G48LZGHxIDffAy-187" edge="1">
          <mxGeometry relative="1" as="geometry" />
        </mxCell>
        <mxCell id="UshZH0G48LZGHxIDffAy-185" value="&lt;span class=&quot;hljs-keyword&quot;&gt;Execute&lt;/span&gt; &lt;span class=&quot;hljs-keyword&quot;&gt;SQL&lt;/span&gt;: &lt;span class=&quot;hljs-keyword&quot;&gt;INSERT&lt;/span&gt; &lt;span class=&quot;hljs-keyword&quot;&gt;INTO&lt;/span&gt; account (username, password, name, balance) &lt;span class=&quot;hljs-keyword&quot;&gt;VALUES&lt;/span&gt; (?, ?, ?, &lt;span class=&quot;hljs-number&quot;&gt;0&lt;/span&gt;) WITH (username, password, name)" style="whiteSpace=wrap;html=1;fontFamily=Courier New;fontStyle=1" parent="1" vertex="1">
          <mxGeometry x="2060" y="510" width="220" height="60" as="geometry" />
        </mxCell>
        <mxCell id="UshZH0G48LZGHxIDffAy-186" value="" style="edgeStyle=orthogonalEdgeStyle;rounded=0;orthogonalLoop=1;jettySize=auto;html=1;fontFamily=Courier New;fontStyle=1" parent="1" source="UshZH0G48LZGHxIDffAy-187" target="UshZH0G48LZGHxIDffAy-189" edge="1">
          <mxGeometry relative="1" as="geometry" />
        </mxCell>
        <mxCell id="UshZH0G48LZGHxIDffAy-187" value="commit changes" style="whiteSpace=wrap;html=1;fontFamily=Courier New;fontStyle=1" parent="1" vertex="1">
          <mxGeometry x="2060" y="600" width="220" height="60" as="geometry" />
        </mxCell>
        <mxCell id="UshZH0G48LZGHxIDffAy-188" style="edgeStyle=orthogonalEdgeStyle;rounded=0;orthogonalLoop=1;jettySize=auto;html=1;exitX=0.5;exitY=1;exitDx=0;exitDy=0;fontFamily=Courier New;fontStyle=1" parent="1" source="UshZH0G48LZGHxIDffAy-189" edge="1">
          <mxGeometry relative="1" as="geometry">
            <mxPoint x="2340" y="810" as="targetPoint" />
            <Array as="points">
              <mxPoint x="2170" y="810" />
            </Array>
          </mxGeometry>
        </mxCell>
        <mxCell id="UshZH0G48LZGHxIDffAy-189" value="return True" style="whiteSpace=wrap;html=1;fontFamily=Courier New;fontStyle=1" parent="1" vertex="1">
          <mxGeometry x="2060" y="690" width="220" height="60" as="geometry" />
        </mxCell>
        <mxCell id="UshZH0G48LZGHxIDffAy-190" style="edgeStyle=orthogonalEdgeStyle;rounded=0;orthogonalLoop=1;jettySize=auto;html=1;exitX=0.5;exitY=1;exitDx=0;exitDy=0;fontFamily=Courier New;fontStyle=1" parent="1" edge="1">
          <mxGeometry relative="1" as="geometry">
            <mxPoint x="2490" y="530" as="sourcePoint" />
            <mxPoint x="2360" y="810" as="targetPoint" />
            <Array as="points">
              <mxPoint x="2490" y="810" />
            </Array>
          </mxGeometry>
        </mxCell>
        <mxCell id="UshZH0G48LZGHxIDffAy-191" value="return False" style="whiteSpace=wrap;html=1;fontFamily=Courier New;fontStyle=1" parent="1" vertex="1">
          <mxGeometry x="2430" y="510" width="120" height="60" as="geometry" />
        </mxCell>
        <mxCell id="UshZH0G48LZGHxIDffAy-192" value="EXIT" style="ellipse;whiteSpace=wrap;html=1;fontFamily=Courier New;fontStyle=1" parent="1" vertex="1">
          <mxGeometry x="2290" y="870" width="120" height="80" as="geometry" />
        </mxCell>
        <mxCell id="UshZH0G48LZGHxIDffAy-193" style="edgeStyle=orthogonalEdgeStyle;rounded=0;orthogonalLoop=1;jettySize=auto;html=1;exitX=0.5;exitY=1;exitDx=0;exitDy=0;entryX=0.5;entryY=0;entryDx=0;entryDy=0;fontFamily=Courier New;fontStyle=1" parent="1" source="UshZH0G48LZGHxIDffAy-194" target="UshZH0G48LZGHxIDffAy-192" edge="1">
          <mxGeometry relative="1" as="geometry" />
        </mxCell>
        <mxCell id="UshZH0G48LZGHxIDffAy-194" value="" style="ellipse;whiteSpace=wrap;html=1;aspect=fixed;fontFamily=Courier New;fontStyle=1" parent="1" vertex="1">
          <mxGeometry x="2340" y="800" width="20" height="20" as="geometry" />
        </mxCell>
        <mxCell id="UshZH0G48LZGHxIDffAy-195" value="" style="edgeStyle=orthogonalEdgeStyle;rounded=0;orthogonalLoop=1;jettySize=auto;html=1;fontFamily=Courier New;fontStyle=1" parent="1" source="UshZH0G48LZGHxIDffAy-196" target="UshZH0G48LZGHxIDffAy-198" edge="1">
          <mxGeometry relative="1" as="geometry" />
        </mxCell>
        <mxCell id="UshZH0G48LZGHxIDffAy-196" value="login (username, password)" style="ellipse;whiteSpace=wrap;html=1;fontFamily=Courier New;fontStyle=1" parent="1" vertex="1">
          <mxGeometry x="2835" width="120" height="80" as="geometry" />
        </mxCell>
        <mxCell id="UshZH0G48LZGHxIDffAy-197" value="" style="edgeStyle=orthogonalEdgeStyle;rounded=0;orthogonalLoop=1;jettySize=auto;html=1;fontFamily=Courier New;fontStyle=1" parent="1" source="UshZH0G48LZGHxIDffAy-198" target="UshZH0G48LZGHxIDffAy-200" edge="1">
          <mxGeometry relative="1" as="geometry" />
        </mxCell>
        <mxCell id="UshZH0G48LZGHxIDffAy-198" value="&lt;div&gt;query = EXECUTE &quot;SELECT password FROM account WHERE username = ?&quot; WITH (username)&lt;/div&gt;" style="whiteSpace=wrap;html=1;fontFamily=Courier New;fontStyle=1" parent="1" vertex="1">
          <mxGeometry x="2835" y="100" width="120" height="80" as="geometry" />
        </mxCell>
        <mxCell id="UshZH0G48LZGHxIDffAy-199" value="" style="edgeStyle=orthogonalEdgeStyle;rounded=0;orthogonalLoop=1;jettySize=auto;html=1;fontFamily=Courier New;fontStyle=1" parent="1" source="UshZH0G48LZGHxIDffAy-200" target="UshZH0G48LZGHxIDffAy-203" edge="1">
          <mxGeometry relative="1" as="geometry" />
        </mxCell>
        <mxCell id="UshZH0G48LZGHxIDffAy-200" value="&lt;span class=&quot;hljs-operator&quot;&gt;row =&lt;/span&gt; query" style="whiteSpace=wrap;html=1;fontFamily=Courier New;fontStyle=1" parent="1" vertex="1">
          <mxGeometry x="2835" y="220" width="120" height="60" as="geometry" />
        </mxCell>
        <mxCell id="UshZH0G48LZGHxIDffAy-201" value="" style="edgeStyle=orthogonalEdgeStyle;rounded=0;orthogonalLoop=1;jettySize=auto;html=1;entryX=0.5;entryY=0;entryDx=0;entryDy=0;fontFamily=Courier New;fontStyle=1" parent="1" source="UshZH0G48LZGHxIDffAy-203" target="UshZH0G48LZGHxIDffAy-229" edge="1">
          <mxGeometry relative="1" as="geometry">
            <mxPoint x="3030" y="360" as="targetPoint" />
          </mxGeometry>
        </mxCell>
        <mxCell id="UshZH0G48LZGHxIDffAy-202" value="" style="edgeStyle=orthogonalEdgeStyle;rounded=0;orthogonalLoop=1;jettySize=auto;html=1;fontFamily=Courier New;fontStyle=1" parent="1" source="UshZH0G48LZGHxIDffAy-203" target="UshZH0G48LZGHxIDffAy-214" edge="1">
          <mxGeometry relative="1" as="geometry" />
        </mxCell>
        <mxCell id="UshZH0G48LZGHxIDffAy-203" value="if row" style="rhombus;whiteSpace=wrap;html=1;fontFamily=Courier New;fontStyle=1" parent="1" vertex="1">
          <mxGeometry x="2855" y="320" width="80" height="80" as="geometry" />
        </mxCell>
        <mxCell id="UshZH0G48LZGHxIDffAy-204" value="" style="edgeStyle=orthogonalEdgeStyle;rounded=0;orthogonalLoop=1;jettySize=auto;html=1;fontFamily=Courier New;fontStyle=1" parent="1" source="UshZH0G48LZGHxIDffAy-205" target="UshZH0G48LZGHxIDffAy-208" edge="1">
          <mxGeometry relative="1" as="geometry" />
        </mxCell>
        <mxCell id="UshZH0G48LZGHxIDffAy-205" value="saved_password = row[0]" style="whiteSpace=wrap;html=1;fontFamily=Courier New;fontStyle=1" parent="1" vertex="1">
          <mxGeometry x="2970" y="460" width="120" height="60" as="geometry" />
        </mxCell>
        <mxCell id="UshZH0G48LZGHxIDffAy-206" value="" style="edgeStyle=orthogonalEdgeStyle;rounded=0;orthogonalLoop=1;jettySize=auto;html=1;fontFamily=Courier New;fontStyle=1" parent="1" source="UshZH0G48LZGHxIDffAy-208" target="UshZH0G48LZGHxIDffAy-212" edge="1">
          <mxGeometry relative="1" as="geometry" />
        </mxCell>
        <mxCell id="UshZH0G48LZGHxIDffAy-207" value="" style="edgeStyle=orthogonalEdgeStyle;rounded=0;orthogonalLoop=1;jettySize=auto;html=1;entryX=0.5;entryY=0;entryDx=0;entryDy=0;fontFamily=Courier New;fontStyle=1" parent="1" source="UshZH0G48LZGHxIDffAy-208" target="UshZH0G48LZGHxIDffAy-224" edge="1">
          <mxGeometry relative="1" as="geometry">
            <mxPoint x="3190" y="630" as="targetPoint" />
          </mxGeometry>
        </mxCell>
        <mxCell id="UshZH0G48LZGHxIDffAy-208" value="if password == saved_password" style="rhombus;whiteSpace=wrap;html=1;fontFamily=Courier New;fontStyle=1" parent="1" vertex="1">
          <mxGeometry x="2990" y="540" width="80" height="80" as="geometry" />
        </mxCell>
        <mxCell id="UshZH0G48LZGHxIDffAy-209" style="edgeStyle=orthogonalEdgeStyle;rounded=0;orthogonalLoop=1;jettySize=auto;html=1;fontFamily=Courier New;fontStyle=1" parent="1" source="UshZH0G48LZGHxIDffAy-210" edge="1">
          <mxGeometry relative="1" as="geometry">
            <mxPoint x="2890" y="1150" as="targetPoint" />
            <Array as="points">
              <mxPoint x="3190" y="1150" />
            </Array>
          </mxGeometry>
        </mxCell>
        <mxCell id="UshZH0G48LZGHxIDffAy-210" value="return True" style="whiteSpace=wrap;html=1;fontFamily=Courier New;fontStyle=1" parent="1" vertex="1">
          <mxGeometry x="3130" y="910" width="120" height="60" as="geometry" />
        </mxCell>
        <mxCell id="UshZH0G48LZGHxIDffAy-211" style="edgeStyle=orthogonalEdgeStyle;rounded=0;orthogonalLoop=1;jettySize=auto;html=1;entryX=1;entryY=0.5;entryDx=0;entryDy=0;exitX=0.5;exitY=1;exitDx=0;exitDy=0;fontFamily=Courier New;fontStyle=1" parent="1" source="UshZH0G48LZGHxIDffAy-212" target="UshZH0G48LZGHxIDffAy-220" edge="1">
          <mxGeometry relative="1" as="geometry">
            <mxPoint x="2955" y="690" as="sourcePoint" />
            <mxPoint x="2930" y="890" as="targetPoint" />
            <Array as="points">
              <mxPoint x="2920" y="895" />
            </Array>
          </mxGeometry>
        </mxCell>
        <mxCell id="UshZH0G48LZGHxIDffAy-212" value="Print &quot;Incorrect password&quot;" style="whiteSpace=wrap;html=1;fontFamily=Courier New;fontStyle=1" parent="1" vertex="1">
          <mxGeometry x="2860" y="630" width="120" height="60" as="geometry" />
        </mxCell>
        <mxCell id="UshZH0G48LZGHxIDffAy-213" style="edgeStyle=orthogonalEdgeStyle;rounded=0;orthogonalLoop=1;jettySize=auto;html=1;entryX=0;entryY=0.5;entryDx=0;entryDy=0;exitX=0.5;exitY=1;exitDx=0;exitDy=0;fontFamily=Courier New;fontStyle=1" parent="1" source="UshZH0G48LZGHxIDffAy-214" target="UshZH0G48LZGHxIDffAy-220" edge="1">
          <mxGeometry relative="1" as="geometry" />
        </mxCell>
        <mxCell id="UshZH0G48LZGHxIDffAy-214" value="print &quot;username does not exist&quot;" style="whiteSpace=wrap;html=1;fontFamily=Courier New;fontStyle=1" parent="1" vertex="1">
          <mxGeometry x="2670" y="410" width="120" height="60" as="geometry" />
        </mxCell>
        <mxCell id="UshZH0G48LZGHxIDffAy-215" value="TRUE" style="text;html=1;align=center;verticalAlign=middle;whiteSpace=wrap;rounded=0;fontFamily=Courier New;fontStyle=1" parent="1" vertex="1">
          <mxGeometry x="2935" y="330" width="60" height="30" as="geometry" />
        </mxCell>
        <mxCell id="UshZH0G48LZGHxIDffAy-216" value="TRUE" style="text;html=1;align=center;verticalAlign=middle;whiteSpace=wrap;rounded=0;fontFamily=Courier New;fontStyle=1" parent="1" vertex="1">
          <mxGeometry x="3070" y="550" width="60" height="30" as="geometry" />
        </mxCell>
        <mxCell id="UshZH0G48LZGHxIDffAy-217" value="FALSE" style="text;html=1;align=center;verticalAlign=middle;whiteSpace=wrap;rounded=0;fontFamily=Courier New;fontStyle=1" parent="1" vertex="1">
          <mxGeometry x="2795" y="330" width="60" height="30" as="geometry" />
        </mxCell>
        <mxCell id="UshZH0G48LZGHxIDffAy-218" value="FALSE" style="text;html=1;align=center;verticalAlign=middle;whiteSpace=wrap;rounded=0;fontFamily=Courier New;fontStyle=1" parent="1" vertex="1">
          <mxGeometry x="2930" y="550" width="60" height="30" as="geometry" />
        </mxCell>
        <mxCell id="UshZH0G48LZGHxIDffAy-219" value="" style="edgeStyle=orthogonalEdgeStyle;rounded=0;orthogonalLoop=1;jettySize=auto;html=1;fontFamily=Courier New;fontStyle=1" parent="1" source="UshZH0G48LZGHxIDffAy-220" target="UshZH0G48LZGHxIDffAy-223" edge="1">
          <mxGeometry relative="1" as="geometry" />
        </mxCell>
        <mxCell id="UshZH0G48LZGHxIDffAy-220" value="" style="ellipse;whiteSpace=wrap;html=1;aspect=fixed;fontFamily=Courier New;fontStyle=1" parent="1" vertex="1">
          <mxGeometry x="2890" y="890" width="10" height="10" as="geometry" />
        </mxCell>
        <mxCell id="UshZH0G48LZGHxIDffAy-221" value="EXIT" style="ellipse;whiteSpace=wrap;html=1;fontFamily=Courier New;fontStyle=1" parent="1" vertex="1">
          <mxGeometry x="2835" y="1220" width="120" height="80" as="geometry" />
        </mxCell>
        <mxCell id="UshZH0G48LZGHxIDffAy-222" style="edgeStyle=orthogonalEdgeStyle;rounded=0;orthogonalLoop=1;jettySize=auto;html=1;exitX=0.5;exitY=1;exitDx=0;exitDy=0;entryX=0.5;entryY=0;entryDx=0;entryDy=0;fontFamily=Courier New;fontStyle=1" parent="1" source="UshZH0G48LZGHxIDffAy-223" target="UshZH0G48LZGHxIDffAy-221" edge="1">
          <mxGeometry relative="1" as="geometry" />
        </mxCell>
        <mxCell id="UshZH0G48LZGHxIDffAy-223" value="return False" style="whiteSpace=wrap;html=1;fontFamily=Courier New;fontStyle=1" parent="1" vertex="1">
          <mxGeometry x="2835" y="950" width="120" height="60" as="geometry" />
        </mxCell>
        <mxCell id="UshZH0G48LZGHxIDffAy-224" value="name = EXECUTE &quot;SELECT name FROM account WHERE username = ?&quot; WITH (username)" style="whiteSpace=wrap;html=1;fontFamily=Courier New;fontStyle=1" parent="1" vertex="1">
          <mxGeometry x="3130" y="650" width="120" height="80" as="geometry" />
        </mxCell>
        <mxCell id="UshZH0G48LZGHxIDffAy-225" value="" style="edgeStyle=orthogonalEdgeStyle;rounded=0;orthogonalLoop=1;jettySize=auto;html=1;fontFamily=Courier New;fontStyle=1" parent="1" source="UshZH0G48LZGHxIDffAy-224" target="UshZH0G48LZGHxIDffAy-227" edge="1">
          <mxGeometry relative="1" as="geometry">
            <mxPoint x="3190" y="730" as="sourcePoint" />
            <mxPoint x="3190" y="860" as="targetPoint" />
          </mxGeometry>
        </mxCell>
        <mxCell id="UshZH0G48LZGHxIDffAy-226" value="" style="edgeStyle=orthogonalEdgeStyle;rounded=0;orthogonalLoop=1;jettySize=auto;html=1;fontFamily=Courier New;fontStyle=1" parent="1" source="UshZH0G48LZGHxIDffAy-227" target="UshZH0G48LZGHxIDffAy-210" edge="1">
          <mxGeometry relative="1" as="geometry" />
        </mxCell>
        <mxCell id="UshZH0G48LZGHxIDffAy-227" value="Print &quot;Welcome &quot; + name" style="whiteSpace=wrap;html=1;fontFamily=Courier New;fontStyle=1" parent="1" vertex="1">
          <mxGeometry x="3130" y="760" width="120" height="60" as="geometry" />
        </mxCell>
        <mxCell id="UshZH0G48LZGHxIDffAy-228" style="edgeStyle=orthogonalEdgeStyle;rounded=0;orthogonalLoop=1;jettySize=auto;html=1;exitX=0.5;exitY=1;exitDx=0;exitDy=0;entryX=0.5;entryY=0;entryDx=0;entryDy=0;fontFamily=Courier New;fontStyle=1" parent="1" source="UshZH0G48LZGHxIDffAy-229" target="UshZH0G48LZGHxIDffAy-205" edge="1">
          <mxGeometry relative="1" as="geometry" />
        </mxCell>
        <mxCell id="UshZH0G48LZGHxIDffAy-229" value="password = SHA256(password) -&amp;gt; Hex" style="rounded=0;whiteSpace=wrap;html=1;fontFamily=Courier New;fontStyle=1" parent="1" vertex="1">
          <mxGeometry x="2945" y="380" width="170" height="60" as="geometry" />
        </mxCell>
        <mxCell id="rgjTrwtEVMEce0LyzO18-37" style="edgeStyle=orthogonalEdgeStyle;rounded=0;orthogonalLoop=1;jettySize=auto;html=1;exitX=0.5;exitY=1;exitDx=0;exitDy=0;entryX=0.5;entryY=0;entryDx=0;entryDy=0;fontFamily=Courier New;fontStyle=1" parent="1" source="UshZH0G48LZGHxIDffAy-231" target="rgjTrwtEVMEce0LyzO18-45" edge="1">
          <mxGeometry relative="1" as="geometry">
            <mxPoint x="2295.580000000001" y="1155" as="targetPoint" />
          </mxGeometry>
        </mxCell>
        <mxCell id="UshZH0G48LZGHxIDffAy-231" value="buy_ticket(username)" style="ellipse;whiteSpace=wrap;html=1;fontFamily=Courier New;fontStyle=1;fontSize=9;" parent="1" vertex="1">
          <mxGeometry x="2235" y="1210" width="120" height="80" as="geometry" />
        </mxCell>
        <mxCell id="UshZH0G48LZGHxIDffAy-232" style="edgeStyle=orthogonalEdgeStyle;rounded=0;orthogonalLoop=1;jettySize=auto;html=1;entryX=0.5;entryY=0;entryDx=0;entryDy=0;fontFamily=Courier New;fontStyle=1" parent="1" source="UshZH0G48LZGHxIDffAy-233" target="UshZH0G48LZGHxIDffAy-268" edge="1">
          <mxGeometry relative="1" as="geometry" />
        </mxCell>
        <mxCell id="UshZH0G48LZGHxIDffAy-233" value="initialize stations list" style="whiteSpace=wrap;html=1;fontFamily=Courier New;fontStyle=1;fontSize=9;" parent="1" vertex="1">
          <mxGeometry x="2235.08" y="1463.5" width="120" height="60" as="geometry" />
        </mxCell>
        <mxCell id="UshZH0G48LZGHxIDffAy-234" value="" style="edgeStyle=orthogonalEdgeStyle;rounded=0;orthogonalLoop=1;jettySize=auto;html=1;fontFamily=Courier New;fontStyle=1;fontSize=9;" parent="1" source="UshZH0G48LZGHxIDffAy-235" target="UshZH0G48LZGHxIDffAy-238" edge="1">
          <mxGeometry relative="1" as="geometry" />
        </mxCell>
        <mxCell id="UshZH0G48LZGHxIDffAy-235" value="i &amp;lt;- 1" style="whiteSpace=wrap;html=1;align=center;fontFamily=Courier New;fontStyle=1;fontSize=9;" parent="1" vertex="1">
          <mxGeometry x="2235.08" y="1663.5" width="120" height="60" as="geometry" />
        </mxCell>
        <mxCell id="UshZH0G48LZGHxIDffAy-236" value="" style="edgeStyle=orthogonalEdgeStyle;rounded=0;orthogonalLoop=1;jettySize=auto;html=1;fontFamily=Courier New;fontStyle=1;fontSize=9;" parent="1" source="UshZH0G48LZGHxIDffAy-238" target="UshZH0G48LZGHxIDffAy-240" edge="1">
          <mxGeometry relative="1" as="geometry" />
        </mxCell>
        <mxCell id="UshZH0G48LZGHxIDffAy-237" value="" style="edgeStyle=orthogonalEdgeStyle;rounded=0;orthogonalLoop=1;jettySize=auto;html=1;entryX=0.5;entryY=0;entryDx=0;entryDy=0;fontFamily=Courier New;fontStyle=1;fontSize=9;" parent="1" source="UshZH0G48LZGHxIDffAy-238" target="rgjTrwtEVMEce0LyzO18-50" edge="1">
          <mxGeometry relative="1" as="geometry">
            <mxPoint x="2295.08" y="2131.5" as="targetPoint" />
            <Array as="points">
              <mxPoint x="2430" y="1794" />
              <mxPoint x="2430" y="2074" />
              <mxPoint x="2295" y="2074" />
            </Array>
          </mxGeometry>
        </mxCell>
        <mxCell id="UshZH0G48LZGHxIDffAy-238" value="i &amp;lt;= len(stations)" style="rhombus;whiteSpace=wrap;html=1;fontFamily=Courier New;fontStyle=1;fontSize=9;" parent="1" vertex="1">
          <mxGeometry x="2255.08" y="1753.5" width="80" height="80" as="geometry" />
        </mxCell>
        <mxCell id="UshZH0G48LZGHxIDffAy-239" value="" style="edgeStyle=orthogonalEdgeStyle;rounded=0;orthogonalLoop=1;jettySize=auto;html=1;fontFamily=Courier New;fontStyle=1;fontSize=9;" parent="1" source="UshZH0G48LZGHxIDffAy-240" target="UshZH0G48LZGHxIDffAy-242" edge="1">
          <mxGeometry relative="1" as="geometry" />
        </mxCell>
        <mxCell id="UshZH0G48LZGHxIDffAy-240" value="print (i, station)" style="shape=parallelogram;perimeter=parallelogramPerimeter;whiteSpace=wrap;html=1;fixedSize=1;fontFamily=Courier New;fontStyle=1;fontSize=9;" parent="1" vertex="1">
          <mxGeometry x="2235.08" y="1873.5" width="120" height="60" as="geometry" />
        </mxCell>
        <mxCell id="UshZH0G48LZGHxIDffAy-241" style="edgeStyle=orthogonalEdgeStyle;rounded=0;orthogonalLoop=1;jettySize=auto;html=1;entryX=0;entryY=0.5;entryDx=0;entryDy=0;exitX=0.5;exitY=1;exitDx=0;exitDy=0;fontFamily=Courier New;fontStyle=1;fontSize=9;" parent="1" source="UshZH0G48LZGHxIDffAy-242" target="UshZH0G48LZGHxIDffAy-238" edge="1">
          <mxGeometry relative="1" as="geometry">
            <Array as="points">
              <mxPoint x="2295.08" y="2043.5" />
              <mxPoint x="2190.08" y="2043.5" />
              <mxPoint x="2190.08" y="1793.5" />
            </Array>
          </mxGeometry>
        </mxCell>
        <mxCell id="UshZH0G48LZGHxIDffAy-242" value="i &amp;lt;- i + 1" style="whiteSpace=wrap;html=1;fontFamily=Courier New;fontStyle=1;fontSize=9;" parent="1" vertex="1">
          <mxGeometry x="2235.08" y="1963.5" width="120" height="60" as="geometry" />
        </mxCell>
        <mxCell id="UshZH0G48LZGHxIDffAy-243" value="TRUE" style="text;html=1;align=center;verticalAlign=middle;whiteSpace=wrap;rounded=0;fontFamily=Courier New;fontStyle=1;fontSize=9;" parent="1" vertex="1">
          <mxGeometry x="2235.08" y="1833.5" width="60" height="30" as="geometry" />
        </mxCell>
        <mxCell id="UshZH0G48LZGHxIDffAy-247" value="FALSE" style="text;html=1;align=center;verticalAlign=middle;whiteSpace=wrap;rounded=0;fontFamily=Courier New;fontStyle=1;fontSize=9;" parent="1" vertex="1">
          <mxGeometry x="2335.08" y="1763.5" width="60" height="30" as="geometry" />
        </mxCell>
        <mxCell id="UshZH0G48LZGHxIDffAy-267" value="" style="edgeStyle=orthogonalEdgeStyle;rounded=0;orthogonalLoop=1;jettySize=auto;html=1;fontFamily=Courier New;fontStyle=1" parent="1" source="UshZH0G48LZGHxIDffAy-268" target="UshZH0G48LZGHxIDffAy-235" edge="1">
          <mxGeometry relative="1" as="geometry" />
        </mxCell>
        <mxCell id="UshZH0G48LZGHxIDffAy-268" value="Print &quot;Stations available:&quot;" style="shape=parallelogram;perimeter=parallelogramPerimeter;whiteSpace=wrap;html=1;fixedSize=1;fontFamily=Courier New;fontStyle=1;fontSize=9;" parent="1" vertex="1">
          <mxGeometry x="2235.58" y="1563.5" width="120" height="60" as="geometry" />
        </mxCell>
        <mxCell id="UshZH0G48LZGHxIDffAy-270" value="" style="edgeStyle=orthogonalEdgeStyle;rounded=0;orthogonalLoop=1;jettySize=auto;html=1;fontFamily=Courier New;fontStyle=1" parent="1" source="UshZH0G48LZGHxIDffAy-271" target="UshZH0G48LZGHxIDffAy-274" edge="1">
          <mxGeometry relative="1" as="geometry" />
        </mxCell>
        <mxCell id="UshZH0G48LZGHxIDffAy-271" value="until cmd == logout" style="rhombus;whiteSpace=wrap;html=1;fontFamily=Courier New;fontStyle=1;" parent="1" vertex="1">
          <mxGeometry x="1390" y="1947.5" width="80" height="80" as="geometry" />
        </mxCell>
        <mxCell id="UshZH0G48LZGHxIDffAy-272" style="edgeStyle=orthogonalEdgeStyle;rounded=0;orthogonalLoop=1;jettySize=auto;html=1;exitX=0;exitY=0.5;exitDx=0;exitDy=0;entryX=0;entryY=0.5;entryDx=0;entryDy=0;fontFamily=Courier New;fontStyle=1" parent="1" source="UshZH0G48LZGHxIDffAy-271" target="UshZH0G48LZGHxIDffAy-10" edge="1">
          <mxGeometry relative="1" as="geometry">
            <Array as="points">
              <mxPoint x="-2730" y="1990" />
              <mxPoint x="-2730" y="465" />
            </Array>
          </mxGeometry>
        </mxCell>
        <mxCell id="UshZH0G48LZGHxIDffAy-273" style="edgeStyle=orthogonalEdgeStyle;rounded=0;orthogonalLoop=1;jettySize=auto;html=1;exitX=0.5;exitY=1;exitDx=0;exitDy=0;entryX=0.5;entryY=0;entryDx=0;entryDy=0;fontFamily=Courier New;fontStyle=1" parent="1" source="UshZH0G48LZGHxIDffAy-274" target="UshZH0G48LZGHxIDffAy-275" edge="1">
          <mxGeometry relative="1" as="geometry" />
        </mxCell>
        <mxCell id="UshZH0G48LZGHxIDffAy-274" value="logout()" style="shape=process;whiteSpace=wrap;html=1;backgroundOutline=1;fontFamily=Courier New;fontStyle=1;" parent="1" vertex="1">
          <mxGeometry x="1370" y="2086.25" width="120" height="60" as="geometry" />
        </mxCell>
        <mxCell id="UshZH0G48LZGHxIDffAy-275" value="END" style="ellipse;whiteSpace=wrap;html=1;fontFamily=Courier New;fontStyle=1" parent="1" vertex="1">
          <mxGeometry x="1370" y="2203.75" width="120" height="80" as="geometry" />
        </mxCell>
        <mxCell id="UshZH0G48LZGHxIDffAy-276" value="TRUE" style="text;html=1;align=center;verticalAlign=middle;whiteSpace=wrap;rounded=0;fontFamily=Courier New;fontStyle=1" parent="1" vertex="1">
          <mxGeometry x="1820" y="660" width="60" height="30" as="geometry" />
        </mxCell>
        <mxCell id="UshZH0G48LZGHxIDffAy-277" value="TRUE" style="text;html=1;align=center;verticalAlign=middle;whiteSpace=wrap;rounded=0;fontFamily=Courier New;fontStyle=1" parent="1" vertex="1">
          <mxGeometry x="1220" y="760" width="60" height="30" as="geometry" />
        </mxCell>
        <mxCell id="UshZH0G48LZGHxIDffAy-278" value="TRUE" style="text;html=1;align=center;verticalAlign=middle;whiteSpace=wrap;rounded=0;fontFamily=Courier New;fontStyle=1" parent="1" vertex="1">
          <mxGeometry x="1070" y="660" width="60" height="30" as="geometry" />
        </mxCell>
        <mxCell id="UshZH0G48LZGHxIDffAy-279" value="TRUE" style="text;html=1;align=center;verticalAlign=middle;whiteSpace=wrap;rounded=0;fontFamily=Courier New;fontStyle=1" parent="1" vertex="1">
          <mxGeometry x="520" y="750" width="60" height="30" as="geometry" />
        </mxCell>
        <mxCell id="UshZH0G48LZGHxIDffAy-280" value="TRUE" style="text;html=1;align=center;verticalAlign=middle;whiteSpace=wrap;rounded=0;fontFamily=Courier New;fontStyle=1" parent="1" vertex="1">
          <mxGeometry x="670" y="850" width="60" height="30" as="geometry" />
        </mxCell>
        <mxCell id="UshZH0G48LZGHxIDffAy-281" value="TRUE" style="text;html=1;align=center;verticalAlign=middle;whiteSpace=wrap;rounded=0;fontFamily=Courier New;fontStyle=1" parent="1" vertex="1">
          <mxGeometry x="1090" y="1090" width="60" height="30" as="geometry" />
        </mxCell>
        <mxCell id="UshZH0G48LZGHxIDffAy-282" value="FALSE" style="text;html=1;align=center;verticalAlign=middle;whiteSpace=wrap;rounded=0;fontFamily=Courier New;fontStyle=1" parent="1" vertex="1">
          <mxGeometry x="880" y="1090" width="60" height="30" as="geometry" />
        </mxCell>
        <mxCell id="UshZH0G48LZGHxIDffAy-283" value="FALSE" style="text;html=1;align=center;verticalAlign=middle;whiteSpace=wrap;rounded=0;fontFamily=Courier New;fontStyle=1" parent="1" vertex="1">
          <mxGeometry x="360" y="750" width="60" height="30" as="geometry" />
        </mxCell>
        <mxCell id="UshZH0G48LZGHxIDffAy-284" value="FALSE" style="text;html=1;align=center;verticalAlign=middle;whiteSpace=wrap;rounded=0;fontFamily=Courier New;fontStyle=1" parent="1" vertex="1">
          <mxGeometry x="520" y="850" width="60" height="30" as="geometry" />
        </mxCell>
        <mxCell id="UshZH0G48LZGHxIDffAy-285" value="FALSE" style="text;html=1;align=center;verticalAlign=middle;whiteSpace=wrap;rounded=0;fontFamily=Courier New;fontStyle=1" parent="1" vertex="1">
          <mxGeometry x="920" y="660" width="60" height="30" as="geometry" />
        </mxCell>
        <mxCell id="UshZH0G48LZGHxIDffAy-286" value="FALSE" style="text;html=1;align=center;verticalAlign=middle;whiteSpace=wrap;rounded=0;fontFamily=Courier New;fontStyle=1" parent="1" vertex="1">
          <mxGeometry x="1080" y="760" width="60" height="30" as="geometry" />
        </mxCell>
        <mxCell id="UshZH0G48LZGHxIDffAy-287" value="FALSE" style="text;html=1;align=center;verticalAlign=middle;whiteSpace=wrap;rounded=0;fontFamily=Courier New;fontStyle=1" parent="1" vertex="1">
          <mxGeometry x="1670" y="660" width="60" height="30" as="geometry" />
        </mxCell>
        <mxCell id="UshZH0G48LZGHxIDffAy-288" value="FALSE" style="text;html=1;align=center;verticalAlign=middle;whiteSpace=wrap;rounded=0;fontFamily=Courier New;fontStyle=1" parent="1" vertex="1">
          <mxGeometry x="1330" y="540" width="60" height="30" as="geometry" />
        </mxCell>
        <mxCell id="UshZH0G48LZGHxIDffAy-289" value="TRUE" style="text;html=1;align=center;verticalAlign=middle;whiteSpace=wrap;rounded=0;fontFamily=Courier New;fontStyle=1" parent="1" vertex="1">
          <mxGeometry x="1650" y="1805" width="60" height="30" as="geometry" />
        </mxCell>
        <mxCell id="UshZH0G48LZGHxIDffAy-290" value="TRUE" style="text;html=1;align=center;verticalAlign=middle;whiteSpace=wrap;rounded=0;fontFamily=Courier New;fontStyle=1" parent="1" vertex="1">
          <mxGeometry x="1430" y="2027.5" width="60" height="30" as="geometry" />
        </mxCell>
        <mxCell id="UshZH0G48LZGHxIDffAy-291" value="FALSE" style="text;html=1;align=center;verticalAlign=middle;whiteSpace=wrap;rounded=0;fontFamily=Courier New;fontStyle=1" parent="1" vertex="1">
          <mxGeometry x="1330" y="1960" width="60" height="30" as="geometry" />
        </mxCell>
        <mxCell id="UshZH0G48LZGHxIDffAy-292" value="TRUE" style="text;html=1;align=center;verticalAlign=middle;whiteSpace=wrap;rounded=0;fontFamily=Courier New;fontStyle=1" parent="1" vertex="1">
          <mxGeometry x="30" y="850" width="60" height="30" as="geometry" />
        </mxCell>
        <mxCell id="UshZH0G48LZGHxIDffAy-293" value="TRUE" style="text;html=1;align=center;verticalAlign=middle;whiteSpace=wrap;rounded=0;fontFamily=Courier New;fontStyle=1" parent="1" vertex="1">
          <mxGeometry x="170" y="960" width="60" height="30" as="geometry" />
        </mxCell>
        <mxCell id="UshZH0G48LZGHxIDffAy-294" value="FALSE" style="text;html=1;align=center;verticalAlign=middle;whiteSpace=wrap;rounded=0;fontFamily=Courier New;fontStyle=1" parent="1" vertex="1">
          <mxGeometry x="-110" y="855" width="60" height="30" as="geometry" />
        </mxCell>
        <mxCell id="UshZH0G48LZGHxIDffAy-295" value="FALSE" style="text;html=1;align=center;verticalAlign=middle;whiteSpace=wrap;rounded=0;fontFamily=Courier New;fontStyle=1" parent="1" vertex="1">
          <mxGeometry x="30" y="960" width="60" height="30" as="geometry" />
        </mxCell>
        <mxCell id="UshZH0G48LZGHxIDffAy-296" value="TRUE" style="text;html=1;align=center;verticalAlign=middle;whiteSpace=wrap;rounded=0;fontFamily=Courier New;fontStyle=1" parent="1" vertex="1">
          <mxGeometry x="-410" y="960" width="60" height="30" as="geometry" />
        </mxCell>
        <mxCell id="UshZH0G48LZGHxIDffAy-297" value="TRUE" style="text;html=1;align=center;verticalAlign=middle;whiteSpace=wrap;rounded=0;fontFamily=Courier New;fontStyle=1" parent="1" vertex="1">
          <mxGeometry x="-300" y="1060" width="60" height="30" as="geometry" />
        </mxCell>
        <mxCell id="UshZH0G48LZGHxIDffAy-298" value="FALSE" style="text;html=1;align=center;verticalAlign=middle;whiteSpace=wrap;rounded=0;fontFamily=Courier New;fontStyle=1" parent="1" vertex="1">
          <mxGeometry x="-550" y="960" width="60" height="30" as="geometry" />
        </mxCell>
        <mxCell id="UshZH0G48LZGHxIDffAy-299" value="FALSE" style="text;html=1;align=center;verticalAlign=middle;whiteSpace=wrap;rounded=0;fontFamily=Courier New;fontStyle=1" parent="1" vertex="1">
          <mxGeometry x="-440" y="1060" width="60" height="30" as="geometry" />
        </mxCell>
        <mxCell id="UshZH0G48LZGHxIDffAy-300" value="FALSE" style="text;html=1;align=center;verticalAlign=middle;whiteSpace=wrap;rounded=0;fontFamily=Courier New;fontStyle=1" parent="1" vertex="1">
          <mxGeometry x="-860" y="1140" width="60" height="30" as="geometry" />
        </mxCell>
        <mxCell id="UshZH0G48LZGHxIDffAy-301" value="FALSE" style="text;html=1;align=center;verticalAlign=middle;whiteSpace=wrap;rounded=0;fontFamily=Courier New;fontStyle=1" parent="1" vertex="1">
          <mxGeometry x="-980" y="1050" width="60" height="30" as="geometry" />
        </mxCell>
        <mxCell id="UshZH0G48LZGHxIDffAy-302" value="TRUE" style="text;html=1;align=center;verticalAlign=middle;whiteSpace=wrap;rounded=0;fontFamily=Courier New;fontStyle=1" parent="1" vertex="1">
          <mxGeometry x="-830" y="1050" width="60" height="30" as="geometry" />
        </mxCell>
        <mxCell id="UshZH0G48LZGHxIDffAy-303" value="TRUE" style="text;html=1;align=center;verticalAlign=middle;whiteSpace=wrap;rounded=0;fontFamily=Courier New;fontStyle=1" parent="1" vertex="1">
          <mxGeometry x="-720" y="1140" width="60" height="30" as="geometry" />
        </mxCell>
        <mxCell id="UshZH0G48LZGHxIDffAy-304" value="TRUE" style="text;html=1;align=center;verticalAlign=middle;whiteSpace=wrap;rounded=0;fontFamily=Courier New;fontStyle=1" parent="1" vertex="1">
          <mxGeometry x="-1150" y="1230" width="60" height="30" as="geometry" />
        </mxCell>
        <mxCell id="UshZH0G48LZGHxIDffAy-305" value="TRUE" style="text;html=1;align=center;verticalAlign=middle;whiteSpace=wrap;rounded=0;fontFamily=Courier New;fontStyle=1" parent="1" vertex="1">
          <mxGeometry x="-1270" y="1140" width="60" height="30" as="geometry" />
        </mxCell>
        <mxCell id="UshZH0G48LZGHxIDffAy-306" value="FALSE" style="text;html=1;align=center;verticalAlign=middle;whiteSpace=wrap;rounded=0;fontFamily=Courier New;fontStyle=1" parent="1" vertex="1">
          <mxGeometry x="-1410" y="1140" width="60" height="30" as="geometry" />
        </mxCell>
        <mxCell id="UshZH0G48LZGHxIDffAy-307" value="FALSE" style="text;html=1;align=center;verticalAlign=middle;whiteSpace=wrap;rounded=0;fontFamily=Courier New;fontStyle=1" parent="1" vertex="1">
          <mxGeometry x="-1292.5" y="1230" width="60" height="30" as="geometry" />
        </mxCell>
        <mxCell id="UshZH0G48LZGHxIDffAy-308" value="FALSE" style="text;html=1;align=center;verticalAlign=middle;whiteSpace=wrap;rounded=0;fontFamily=Courier New;fontStyle=1" parent="1" vertex="1">
          <mxGeometry x="-1710" y="1360" width="60" height="30" as="geometry" />
        </mxCell>
        <mxCell id="UshZH0G48LZGHxIDffAy-309" value="TRUE" style="text;html=1;align=center;verticalAlign=middle;whiteSpace=wrap;rounded=0;fontFamily=Courier New;fontStyle=1" parent="1" vertex="1">
          <mxGeometry x="-1570" y="1360" width="60" height="30" as="geometry" />
        </mxCell>
        <mxCell id="UshZH0G48LZGHxIDffAy-310" value="TRUE" style="text;html=1;align=center;verticalAlign=middle;whiteSpace=wrap;rounded=0;fontFamily=Courier New;fontStyle=1" parent="1" vertex="1">
          <mxGeometry x="-1690" y="1270" width="60" height="30" as="geometry" />
        </mxCell>
        <mxCell id="UshZH0G48LZGHxIDffAy-311" value="FALSE" style="text;html=1;align=center;verticalAlign=middle;whiteSpace=wrap;rounded=0;fontFamily=Courier New;fontStyle=1" parent="1" vertex="1">
          <mxGeometry x="-1890" y="1270" width="60" height="30" as="geometry" />
        </mxCell>
        <mxCell id="UshZH0G48LZGHxIDffAy-312" value="TRUE" style="text;html=1;align=center;verticalAlign=middle;whiteSpace=wrap;rounded=0;fontFamily=Courier New;fontStyle=1" parent="1" vertex="1">
          <mxGeometry x="-1310" y="1715" width="60" height="30" as="geometry" />
        </mxCell>
        <mxCell id="UshZH0G48LZGHxIDffAy-313" value="FALSE" style="text;html=1;align=center;verticalAlign=middle;whiteSpace=wrap;rounded=0;fontFamily=Courier New;fontStyle=1" parent="1" vertex="1">
          <mxGeometry x="-1410" y="1605" width="60" height="30" as="geometry" />
        </mxCell>
        <mxCell id="UshZH0G48LZGHxIDffAy-314" value="TRUE" style="text;html=1;align=center;verticalAlign=middle;whiteSpace=wrap;rounded=0;fontFamily=Courier New;fontStyle=1" parent="1" vertex="1">
          <mxGeometry x="-2180" y="1410" width="60" height="30" as="geometry" />
        </mxCell>
        <mxCell id="UshZH0G48LZGHxIDffAy-315" value="FALSE" style="text;html=1;align=center;verticalAlign=middle;whiteSpace=wrap;rounded=0;fontFamily=Courier New;fontStyle=1" parent="1" vertex="1">
          <mxGeometry x="-2330" y="1410" width="60" height="30" as="geometry" />
        </mxCell>
        <mxCell id="UshZH0G48LZGHxIDffAy-316" value="TRUE" style="text;html=1;align=center;verticalAlign=middle;whiteSpace=wrap;rounded=0;fontFamily=Courier New;fontStyle=1" parent="1" vertex="1">
          <mxGeometry x="-2370" y="1505" width="60" height="30" as="geometry" />
        </mxCell>
        <mxCell id="UshZH0G48LZGHxIDffAy-317" value="FALSE" style="text;html=1;align=center;verticalAlign=middle;whiteSpace=wrap;rounded=0;fontFamily=Courier New;fontStyle=1" parent="1" vertex="1">
          <mxGeometry x="-2510" y="1500" width="60" height="30" as="geometry" />
        </mxCell>
        <mxCell id="UshZH0G48LZGHxIDffAy-318" value="FALSE" style="text;html=1;align=center;verticalAlign=middle;whiteSpace=wrap;rounded=0;fontFamily=Courier New;fontStyle=1" parent="1" vertex="1">
          <mxGeometry x="2255" y="340" width="60" height="30" as="geometry" />
        </mxCell>
        <mxCell id="rgjTrwtEVMEce0LyzO18-4" value="" style="edgeStyle=orthogonalEdgeStyle;rounded=0;orthogonalLoop=1;jettySize=auto;html=1;fontFamily=Courier New;fontStyle=1" parent="1" source="rgjTrwtEVMEce0LyzO18-1" target="rgjTrwtEVMEce0LyzO18-3" edge="1">
          <mxGeometry relative="1" as="geometry" />
        </mxCell>
        <mxCell id="rgjTrwtEVMEce0LyzO18-1" value="EXECUTE SQL: &#39;SELECT username FROM account WHERE username = ?&#39; WITH username" style="whiteSpace=wrap;html=1;fontFamily=Courier New;fontStyle=1;" parent="1" vertex="1">
          <mxGeometry x="1555" y="852.5" width="150" height="85" as="geometry" />
        </mxCell>
        <mxCell id="rgjTrwtEVMEce0LyzO18-6" value="" style="edgeStyle=orthogonalEdgeStyle;rounded=0;orthogonalLoop=1;jettySize=auto;html=1;fontFamily=Courier New;fontStyle=1" parent="1" source="rgjTrwtEVMEce0LyzO18-3" target="rgjTrwtEVMEce0LyzO18-5" edge="1">
          <mxGeometry relative="1" as="geometry" />
        </mxCell>
        <mxCell id="rgjTrwtEVMEce0LyzO18-3" value="fetch result(s)" style="whiteSpace=wrap;html=1;fontFamily=Courier New;fontStyle=1;" parent="1" vertex="1">
          <mxGeometry x="1570" y="970" width="120" height="60" as="geometry" />
        </mxCell>
        <mxCell id="rgjTrwtEVMEce0LyzO18-10" value="" style="edgeStyle=orthogonalEdgeStyle;rounded=0;orthogonalLoop=1;jettySize=auto;html=1;fontFamily=Courier New;fontStyle=1" parent="1" source="rgjTrwtEVMEce0LyzO18-5" target="rgjTrwtEVMEce0LyzO18-9" edge="1">
          <mxGeometry relative="1" as="geometry" />
        </mxCell>
        <mxCell id="rgjTrwtEVMEce0LyzO18-15" value="" style="edgeStyle=orthogonalEdgeStyle;rounded=0;orthogonalLoop=1;jettySize=auto;html=1;fontFamily=Courier New;fontStyle=1" parent="1" source="rgjTrwtEVMEce0LyzO18-5" target="rgjTrwtEVMEce0LyzO18-14" edge="1">
          <mxGeometry relative="1" as="geometry" />
        </mxCell>
        <mxCell id="rgjTrwtEVMEce0LyzO18-5" value="if result" style="rhombus;whiteSpace=wrap;html=1;fontFamily=Courier New;fontStyle=1;" parent="1" vertex="1">
          <mxGeometry x="1590" y="1100" width="80" height="80" as="geometry" />
        </mxCell>
        <mxCell id="rgjTrwtEVMEce0LyzO18-25" style="edgeStyle=orthogonalEdgeStyle;rounded=0;orthogonalLoop=1;jettySize=auto;html=1;exitX=0.5;exitY=1;exitDx=0;exitDy=0;entryX=1;entryY=0.5;entryDx=0;entryDy=0;fontFamily=Courier New;fontStyle=1" parent="1" source="rgjTrwtEVMEce0LyzO18-9" target="rgjTrwtEVMEce0LyzO18-23" edge="1">
          <mxGeometry relative="1" as="geometry" />
        </mxCell>
        <mxCell id="rgjTrwtEVMEce0LyzO18-9" value="print &#39;username is taken&#39;" style="shape=parallelogram;perimeter=parallelogramPerimeter;whiteSpace=wrap;html=1;fixedSize=1;fontFamily=Courier New;fontStyle=1;" parent="1" vertex="1">
          <mxGeometry x="1700" y="1200" width="120" height="60" as="geometry" />
        </mxCell>
        <mxCell id="rgjTrwtEVMEce0LyzO18-17" value="" style="edgeStyle=orthogonalEdgeStyle;rounded=0;orthogonalLoop=1;jettySize=auto;html=1;fontFamily=Courier New;fontStyle=1" parent="1" source="rgjTrwtEVMEce0LyzO18-14" target="rgjTrwtEVMEce0LyzO18-16" edge="1">
          <mxGeometry relative="1" as="geometry" />
        </mxCell>
        <mxCell id="rgjTrwtEVMEce0LyzO18-14" value="input password" style="shape=parallelogram;perimeter=parallelogramPerimeter;whiteSpace=wrap;html=1;fixedSize=1;fontFamily=Courier New;fontStyle=1;" parent="1" vertex="1">
          <mxGeometry x="1450" y="1200" width="135" height="60" as="geometry" />
        </mxCell>
        <mxCell id="rgjTrwtEVMEce0LyzO18-21" value="" style="edgeStyle=orthogonalEdgeStyle;rounded=0;orthogonalLoop=1;jettySize=auto;html=1;fontFamily=Courier New;fontStyle=1" parent="1" source="rgjTrwtEVMEce0LyzO18-16" target="rgjTrwtEVMEce0LyzO18-20" edge="1">
          <mxGeometry relative="1" as="geometry" />
        </mxCell>
        <mxCell id="rgjTrwtEVMEce0LyzO18-16" value="input confirm_password" style="shape=parallelogram;perimeter=parallelogramPerimeter;whiteSpace=wrap;html=1;fixedSize=1;fontFamily=Courier New;fontStyle=1;" parent="1" vertex="1">
          <mxGeometry x="1448.75" y="1300" width="137.5" height="60" as="geometry" />
        </mxCell>
        <mxCell id="rgjTrwtEVMEce0LyzO18-19" value="REPEAT" style="text;html=1;align=center;verticalAlign=middle;whiteSpace=wrap;rounded=0;fontFamily=Courier New;fontStyle=1" parent="1" vertex="1">
          <mxGeometry x="1520" y="1170" width="60" height="30" as="geometry" />
        </mxCell>
        <mxCell id="rgjTrwtEVMEce0LyzO18-22" style="edgeStyle=orthogonalEdgeStyle;rounded=0;orthogonalLoop=1;jettySize=auto;html=1;entryX=0;entryY=0.5;entryDx=0;entryDy=0;fontFamily=Courier New;fontStyle=1" parent="1" source="rgjTrwtEVMEce0LyzO18-20" target="rgjTrwtEVMEce0LyzO18-14" edge="1">
          <mxGeometry relative="1" as="geometry">
            <Array as="points">
              <mxPoint x="1420" y="1470" />
              <mxPoint x="1420" y="1230" />
            </Array>
          </mxGeometry>
        </mxCell>
        <mxCell id="rgjTrwtEVMEce0LyzO18-24" style="edgeStyle=orthogonalEdgeStyle;rounded=0;orthogonalLoop=1;jettySize=auto;html=1;exitX=0.5;exitY=1;exitDx=0;exitDy=0;entryX=0;entryY=0.5;entryDx=0;entryDy=0;fontFamily=Courier New;fontStyle=1" parent="1" source="rgjTrwtEVMEce0LyzO18-20" target="rgjTrwtEVMEce0LyzO18-23" edge="1">
          <mxGeometry relative="1" as="geometry" />
        </mxCell>
        <mxCell id="rgjTrwtEVMEce0LyzO18-20" value="until confirm_password == password" style="rhombus;whiteSpace=wrap;html=1;fontFamily=Courier New;fontStyle=1;" parent="1" vertex="1">
          <mxGeometry x="1446.25" y="1420" width="142.5" height="100" as="geometry" />
        </mxCell>
        <mxCell id="rgjTrwtEVMEce0LyzO18-30" style="edgeStyle=orthogonalEdgeStyle;rounded=0;orthogonalLoop=1;jettySize=auto;html=1;exitX=0.5;exitY=1;exitDx=0;exitDy=0;entryX=0.5;entryY=0;entryDx=0;entryDy=0;fontFamily=Courier New;fontStyle=1" parent="1" source="rgjTrwtEVMEce0LyzO18-23" target="rgjTrwtEVMEce0LyzO18-28" edge="1">
          <mxGeometry relative="1" as="geometry" />
        </mxCell>
        <mxCell id="rgjTrwtEVMEce0LyzO18-23" value="" style="ellipse;whiteSpace=wrap;html=1;aspect=fixed;fontFamily=Courier New;fontStyle=1" parent="1" vertex="1">
          <mxGeometry x="1620" y="1550" width="20" height="20" as="geometry" />
        </mxCell>
        <mxCell id="rgjTrwtEVMEce0LyzO18-29" style="edgeStyle=orthogonalEdgeStyle;rounded=0;orthogonalLoop=1;jettySize=auto;html=1;exitX=0.5;exitY=1;exitDx=0;exitDy=0;entryX=0.5;entryY=0;entryDx=0;entryDy=0;fontFamily=Courier New;fontStyle=1" parent="1" source="rgjTrwtEVMEce0LyzO18-28" target="UshZH0G48LZGHxIDffAy-38" edge="1">
          <mxGeometry relative="1" as="geometry" />
        </mxCell>
        <mxCell id="rgjTrwtEVMEce0LyzO18-28" value="input name" style="shape=parallelogram;perimeter=parallelogramPerimeter;whiteSpace=wrap;html=1;fixedSize=1;fontFamily=Courier New;fontStyle=1;" parent="1" vertex="1">
          <mxGeometry x="1561.25" y="1605" width="137.5" height="60" as="geometry" />
        </mxCell>
        <mxCell id="rgjTrwtEVMEce0LyzO18-31" value="TRUE" style="text;html=1;align=center;verticalAlign=middle;whiteSpace=wrap;rounded=0;fontFamily=Courier New;fontStyle=1" parent="1" vertex="1">
          <mxGeometry x="1670" y="1110" width="60" height="30" as="geometry" />
        </mxCell>
        <mxCell id="rgjTrwtEVMEce0LyzO18-32" value="FALSE" style="text;html=1;align=center;verticalAlign=middle;whiteSpace=wrap;rounded=0;fontFamily=Courier New;fontStyle=1" parent="1" vertex="1">
          <mxGeometry x="1528.75" y="1110" width="60" height="30" as="geometry" />
        </mxCell>
        <mxCell id="rgjTrwtEVMEce0LyzO18-48" style="edgeStyle=orthogonalEdgeStyle;rounded=0;orthogonalLoop=1;jettySize=auto;html=1;exitX=0.5;exitY=1;exitDx=0;exitDy=0;entryX=0.5;entryY=0;entryDx=0;entryDy=0;fontFamily=Courier New;fontStyle=1" parent="1" source="rgjTrwtEVMEce0LyzO18-45" target="UshZH0G48LZGHxIDffAy-233" edge="1">
          <mxGeometry relative="1" as="geometry" />
        </mxCell>
        <mxCell id="rgjTrwtEVMEce0LyzO18-45" value="invalid_entries = 0" style="whiteSpace=wrap;html=1;fontFamily=Courier New;fontStyle=1;fontSize=9;" parent="1" vertex="1">
          <mxGeometry x="2235.58" y="1355" width="120" height="60" as="geometry" />
        </mxCell>
        <mxCell id="rgjTrwtEVMEce0LyzO18-49" value="REPEAT" style="text;html=1;align=center;verticalAlign=middle;whiteSpace=wrap;rounded=0;fontFamily=Courier New;fontStyle=1" parent="1" vertex="1">
          <mxGeometry x="2300" y="2100" width="60" height="30" as="geometry" />
        </mxCell>
        <mxCell id="rgjTrwtEVMEce0LyzO18-52" value="" style="edgeStyle=orthogonalEdgeStyle;rounded=0;orthogonalLoop=1;jettySize=auto;html=1;fontFamily=Courier New;fontStyle=1" parent="1" source="rgjTrwtEVMEce0LyzO18-50" target="rgjTrwtEVMEce0LyzO18-51" edge="1">
          <mxGeometry relative="1" as="geometry" />
        </mxCell>
        <mxCell id="rgjTrwtEVMEce0LyzO18-56" style="edgeStyle=orthogonalEdgeStyle;rounded=0;orthogonalLoop=1;jettySize=auto;html=1;exitX=0.5;exitY=1;exitDx=0;exitDy=0;entryX=0.5;entryY=0;entryDx=0;entryDy=0;fontFamily=Courier New;fontStyle=1" parent="1" source="rgjTrwtEVMEce0LyzO18-50" target="rgjTrwtEVMEce0LyzO18-55" edge="1">
          <mxGeometry relative="1" as="geometry" />
        </mxCell>
        <mxCell id="rgjTrwtEVMEce0LyzO18-50" value="if invalid_enteries = 0" style="rhombus;whiteSpace=wrap;html=1;fontFamily=Courier New;fontStyle=1" parent="1" vertex="1">
          <mxGeometry x="2255" y="2146" width="80" height="80" as="geometry" />
        </mxCell>
        <mxCell id="rgjTrwtEVMEce0LyzO18-54" value="" style="edgeStyle=orthogonalEdgeStyle;rounded=0;orthogonalLoop=1;jettySize=auto;html=1;fontFamily=Courier New;fontStyle=1" parent="1" source="rgjTrwtEVMEce0LyzO18-51" target="rgjTrwtEVMEce0LyzO18-53" edge="1">
          <mxGeometry relative="1" as="geometry" />
        </mxCell>
        <mxCell id="rgjTrwtEVMEce0LyzO18-51" value="invalid_entries = 0" style="whiteSpace=wrap;html=1;fontFamily=Courier New;fontStyle=1" parent="1" vertex="1">
          <mxGeometry x="2395" y="2240" width="120" height="60" as="geometry" />
        </mxCell>
        <mxCell id="rgjTrwtEVMEce0LyzO18-57" style="edgeStyle=orthogonalEdgeStyle;rounded=0;orthogonalLoop=1;jettySize=auto;html=1;exitX=0.5;exitY=1;exitDx=0;exitDy=0;fontFamily=Courier New;fontStyle=1" parent="1" source="rgjTrwtEVMEce0LyzO18-53" edge="1">
          <mxGeometry relative="1" as="geometry">
            <mxPoint x="2290" y="2460" as="targetPoint" />
            <Array as="points">
              <mxPoint x="2455" y="2460" />
            </Array>
          </mxGeometry>
        </mxCell>
        <mxCell id="rgjTrwtEVMEce0LyzO18-53" value="clear screen" style="whiteSpace=wrap;html=1;fontFamily=Courier New;fontStyle=1" parent="1" vertex="1">
          <mxGeometry x="2395.08" y="2350" width="120" height="60" as="geometry" />
        </mxCell>
        <mxCell id="rgjTrwtEVMEce0LyzO18-59" value="" style="edgeStyle=orthogonalEdgeStyle;rounded=0;orthogonalLoop=1;jettySize=auto;html=1;fontFamily=Courier New;fontStyle=1" parent="1" source="rgjTrwtEVMEce0LyzO18-55" target="rgjTrwtEVMEce0LyzO18-58" edge="1">
          <mxGeometry relative="1" as="geometry" />
        </mxCell>
        <mxCell id="rgjTrwtEVMEce0LyzO18-55" value="input starting" style="whiteSpace=wrap;html=1;fontFamily=Courier New;fontStyle=1" parent="1" vertex="1">
          <mxGeometry x="2235.08" y="2520" width="120" height="60" as="geometry" />
        </mxCell>
        <mxCell id="rgjTrwtEVMEce0LyzO18-61" value="" style="edgeStyle=orthogonalEdgeStyle;rounded=0;orthogonalLoop=1;jettySize=auto;html=1;fontFamily=Courier New;fontStyle=1" parent="1" source="rgjTrwtEVMEce0LyzO18-58" target="rgjTrwtEVMEce0LyzO18-60" edge="1">
          <mxGeometry relative="1" as="geometry" />
        </mxCell>
        <mxCell id="rgjTrwtEVMEce0LyzO18-58" value="input destination" style="whiteSpace=wrap;html=1;fontFamily=Courier New;fontStyle=1" parent="1" vertex="1">
          <mxGeometry x="2235.08" y="2660" width="120" height="60" as="geometry" />
        </mxCell>
        <mxCell id="rgjTrwtEVMEce0LyzO18-64" style="edgeStyle=orthogonalEdgeStyle;rounded=0;orthogonalLoop=1;jettySize=auto;html=1;exitX=0;exitY=0.5;exitDx=0;exitDy=0;entryX=0.5;entryY=1;entryDx=0;entryDy=0;fontFamily=Courier New;fontStyle=1" parent="1" source="rgjTrwtEVMEce0LyzO18-60" target="rgjTrwtEVMEce0LyzO18-63" edge="1">
          <mxGeometry relative="1" as="geometry" />
        </mxCell>
        <mxCell id="rgjTrwtEVMEce0LyzO18-67" value="" style="edgeStyle=orthogonalEdgeStyle;rounded=0;orthogonalLoop=1;jettySize=auto;html=1;fontFamily=Courier New;fontStyle=1" parent="1" source="rgjTrwtEVMEce0LyzO18-60" target="rgjTrwtEVMEce0LyzO18-66" edge="1">
          <mxGeometry relative="1" as="geometry" />
        </mxCell>
        <mxCell id="rgjTrwtEVMEce0LyzO18-60" value="until starting and destination input is in stations" style="rhombus;whiteSpace=wrap;html=1;fontFamily=Courier New;fontStyle=1" parent="1" vertex="1">
          <mxGeometry x="2210" y="2790" width="170" height="110" as="geometry" />
        </mxCell>
        <mxCell id="rgjTrwtEVMEce0LyzO18-65" style="edgeStyle=orthogonalEdgeStyle;rounded=0;orthogonalLoop=1;jettySize=auto;html=1;exitX=0.5;exitY=0;exitDx=0;exitDy=0;entryX=0;entryY=0.5;entryDx=0;entryDy=0;fontFamily=Courier New;fontStyle=1" parent="1" source="rgjTrwtEVMEce0LyzO18-63" target="rgjTrwtEVMEce0LyzO18-50" edge="1">
          <mxGeometry relative="1" as="geometry" />
        </mxCell>
        <mxCell id="rgjTrwtEVMEce0LyzO18-63" value="invalid_entries +=1" style="rounded=0;whiteSpace=wrap;html=1;fontFamily=Courier New;fontStyle=1" parent="1" vertex="1">
          <mxGeometry x="2090" y="2660" width="120" height="60" as="geometry" />
        </mxCell>
        <mxCell id="rgjTrwtEVMEce0LyzO18-69" value="" style="edgeStyle=orthogonalEdgeStyle;rounded=0;orthogonalLoop=1;jettySize=auto;html=1;fontFamily=Courier New;fontStyle=1" parent="1" source="rgjTrwtEVMEce0LyzO18-66" target="rgjTrwtEVMEce0LyzO18-68" edge="1">
          <mxGeometry relative="1" as="geometry" />
        </mxCell>
        <mxCell id="rgjTrwtEVMEce0LyzO18-66" value="starting_index = stations.index(starting)" style="whiteSpace=wrap;html=1;fontFamily=Courier New;fontStyle=1" parent="1" vertex="1">
          <mxGeometry x="2230.58" y="2970" width="130" height="60" as="geometry" />
        </mxCell>
        <mxCell id="rgjTrwtEVMEce0LyzO18-71" value="" style="edgeStyle=orthogonalEdgeStyle;rounded=0;orthogonalLoop=1;jettySize=auto;html=1;fontFamily=Courier New;fontStyle=1" parent="1" source="rgjTrwtEVMEce0LyzO18-68" target="rgjTrwtEVMEce0LyzO18-70" edge="1">
          <mxGeometry relative="1" as="geometry" />
        </mxCell>
        <mxCell id="rgjTrwtEVMEce0LyzO18-68" value="destination_index = stations.index(destination)" style="whiteSpace=wrap;html=1;fontFamily=Courier New;fontStyle=1" parent="1" vertex="1">
          <mxGeometry x="2220" y="3080" width="150" height="60" as="geometry" />
        </mxCell>
        <mxCell id="rgjTrwtEVMEce0LyzO18-73" value="" style="edgeStyle=orthogonalEdgeStyle;rounded=0;orthogonalLoop=1;jettySize=auto;html=1;fontFamily=Courier New;fontStyle=1" parent="1" source="rgjTrwtEVMEce0LyzO18-70" target="rgjTrwtEVMEce0LyzO18-72" edge="1">
          <mxGeometry relative="1" as="geometry" />
        </mxCell>
        <mxCell id="rgjTrwtEVMEce0LyzO18-70" value="number_of_stations = abs(destination_index - starting_index)" style="whiteSpace=wrap;html=1;fontFamily=Courier New;fontStyle=1" parent="1" vertex="1">
          <mxGeometry x="2235" y="3180" width="120" height="60" as="geometry" />
        </mxCell>
        <mxCell id="rgjTrwtEVMEce0LyzO18-75" value="" style="edgeStyle=orthogonalEdgeStyle;rounded=0;orthogonalLoop=1;jettySize=auto;html=1;fontFamily=Courier New;fontStyle=1" parent="1" source="rgjTrwtEVMEce0LyzO18-72" target="rgjTrwtEVMEce0LyzO18-74" edge="1">
          <mxGeometry relative="1" as="geometry" />
        </mxCell>
        <mxCell id="rgjTrwtEVMEce0LyzO18-72" value="fare = 2 * number_of_stations" style="whiteSpace=wrap;html=1;fontFamily=Courier New;fontStyle=1" parent="1" vertex="1">
          <mxGeometry x="2235" y="3280" width="120" height="60" as="geometry" />
        </mxCell>
        <mxCell id="rgjTrwtEVMEce0LyzO18-82" value="" style="edgeStyle=orthogonalEdgeStyle;rounded=0;orthogonalLoop=1;jettySize=auto;html=1;fontFamily=Courier New;fontStyle=1" parent="1" source="rgjTrwtEVMEce0LyzO18-74" target="rgjTrwtEVMEce0LyzO18-81" edge="1">
          <mxGeometry relative="1" as="geometry" />
        </mxCell>
        <mxCell id="rgjTrwtEVMEce0LyzO18-74" value="input tickets" style="shape=parallelogram;perimeter=parallelogramPerimeter;whiteSpace=wrap;html=1;fixedSize=1;fontFamily=Courier New;fontStyle=1" parent="1" vertex="1">
          <mxGeometry x="2235" y="3420" width="120" height="60" as="geometry" />
        </mxCell>
        <mxCell id="rgjTrwtEVMEce0LyzO18-76" value="REPEAT" style="text;html=1;align=center;verticalAlign=middle;whiteSpace=wrap;rounded=0;fontFamily=Courier New;fontStyle=1" parent="1" vertex="1">
          <mxGeometry x="2300" y="3380" width="60" height="30" as="geometry" />
        </mxCell>
        <mxCell id="rgjTrwtEVMEce0LyzO18-77" value="TRUE" style="text;html=1;align=center;verticalAlign=middle;whiteSpace=wrap;rounded=0;fontFamily=Courier New;fontStyle=1" parent="1" vertex="1">
          <mxGeometry x="2295.08" y="2900" width="60" height="30" as="geometry" />
        </mxCell>
        <mxCell id="rgjTrwtEVMEce0LyzO18-78" value="FALSE" style="text;html=1;align=center;verticalAlign=middle;whiteSpace=wrap;rounded=0;fontFamily=Courier New;fontStyle=1" parent="1" vertex="1">
          <mxGeometry x="2160" y="2810" width="60" height="30" as="geometry" />
        </mxCell>
        <mxCell id="rgjTrwtEVMEce0LyzO18-79" value="TRUE" style="text;html=1;align=center;verticalAlign=middle;whiteSpace=wrap;rounded=0;fontFamily=Courier New;fontStyle=1" parent="1" vertex="1">
          <mxGeometry x="2335" y="2150" width="60" height="30" as="geometry" />
        </mxCell>
        <mxCell id="rgjTrwtEVMEce0LyzO18-80" value="FALSE" style="text;html=1;align=center;verticalAlign=middle;whiteSpace=wrap;rounded=0;fontFamily=Courier New;fontStyle=1" parent="1" vertex="1">
          <mxGeometry x="2295.08" y="2226" width="60" height="30" as="geometry" />
        </mxCell>
        <mxCell id="rgjTrwtEVMEce0LyzO18-84" value="" style="edgeStyle=orthogonalEdgeStyle;rounded=0;orthogonalLoop=1;jettySize=auto;html=1;fontFamily=Courier New;fontStyle=1" parent="1" source="rgjTrwtEVMEce0LyzO18-81" target="rgjTrwtEVMEce0LyzO18-83" edge="1">
          <mxGeometry relative="1" as="geometry" />
        </mxCell>
        <mxCell id="rgjTrwtEVMEce0LyzO18-131" value="" style="edgeStyle=orthogonalEdgeStyle;rounded=0;orthogonalLoop=1;jettySize=auto;html=1;fontFamily=Courier New;fontStyle=1" parent="1" source="rgjTrwtEVMEce0LyzO18-81" target="rgjTrwtEVMEce0LyzO18-130" edge="1">
          <mxGeometry relative="1" as="geometry" />
        </mxCell>
        <mxCell id="rgjTrwtEVMEce0LyzO18-81" value="if tickets is integer and tickets &amp;gt; 0" style="rhombus;whiteSpace=wrap;html=1;fontFamily=Courier New;fontStyle=1" parent="1" vertex="1">
          <mxGeometry x="2230" y="3550" width="130" height="110" as="geometry" />
        </mxCell>
        <mxCell id="rgjTrwtEVMEce0LyzO18-86" value="" style="edgeStyle=orthogonalEdgeStyle;rounded=0;orthogonalLoop=1;jettySize=auto;html=1;fontFamily=Courier New;fontStyle=1" parent="1" source="rgjTrwtEVMEce0LyzO18-83" target="rgjTrwtEVMEce0LyzO18-85" edge="1">
          <mxGeometry relative="1" as="geometry" />
        </mxCell>
        <mxCell id="rgjTrwtEVMEce0LyzO18-83" value="tickets = int(tickets)" style="whiteSpace=wrap;html=1;fontFamily=Courier New;fontStyle=1" parent="1" vertex="1">
          <mxGeometry x="2380" y="3680" width="120" height="60" as="geometry" />
        </mxCell>
        <mxCell id="rgjTrwtEVMEce0LyzO18-88" value="" style="edgeStyle=orthogonalEdgeStyle;rounded=0;orthogonalLoop=1;jettySize=auto;html=1;fontFamily=Courier New;fontStyle=1" parent="1" source="rgjTrwtEVMEce0LyzO18-85" target="rgjTrwtEVMEce0LyzO18-87" edge="1">
          <mxGeometry relative="1" as="geometry" />
        </mxCell>
        <mxCell id="rgjTrwtEVMEce0LyzO18-85" value="price = fare * tickets" style="whiteSpace=wrap;html=1;fontFamily=Courier New;fontStyle=1" parent="1" vertex="1">
          <mxGeometry x="2380" y="3820" width="120" height="60" as="geometry" />
        </mxCell>
        <mxCell id="rgjTrwtEVMEce0LyzO18-90" value="" style="edgeStyle=orthogonalEdgeStyle;rounded=0;orthogonalLoop=1;jettySize=auto;html=1;fontFamily=Courier New;fontStyle=1" parent="1" source="rgjTrwtEVMEce0LyzO18-87" target="rgjTrwtEVMEce0LyzO18-89" edge="1">
          <mxGeometry relative="1" as="geometry" />
        </mxCell>
        <mxCell id="rgjTrwtEVMEce0LyzO18-87" value="input cmd" style="shape=parallelogram;perimeter=parallelogramPerimeter;whiteSpace=wrap;html=1;fixedSize=1;fontFamily=Courier New;fontStyle=1" parent="1" vertex="1">
          <mxGeometry x="2380" y="3960" width="120" height="60" as="geometry" />
        </mxCell>
        <mxCell id="rgjTrwtEVMEce0LyzO18-92" value="" style="edgeStyle=orthogonalEdgeStyle;rounded=0;orthogonalLoop=1;jettySize=auto;html=1;fontFamily=Courier New;fontStyle=1" parent="1" source="rgjTrwtEVMEce0LyzO18-89" target="rgjTrwtEVMEce0LyzO18-91" edge="1">
          <mxGeometry relative="1" as="geometry" />
        </mxCell>
        <mxCell id="rgjTrwtEVMEce0LyzO18-119" value="" style="edgeStyle=orthogonalEdgeStyle;rounded=0;orthogonalLoop=1;jettySize=auto;html=1;fontFamily=Courier New;fontStyle=1" parent="1" source="rgjTrwtEVMEce0LyzO18-89" target="rgjTrwtEVMEce0LyzO18-118" edge="1">
          <mxGeometry relative="1" as="geometry" />
        </mxCell>
        <mxCell id="rgjTrwtEVMEce0LyzO18-89" value="if cmd == &#39;y&#39; or &#39;yes&#39;" style="rhombus;whiteSpace=wrap;html=1;fontFamily=Courier New;fontStyle=1" parent="1" vertex="1">
          <mxGeometry x="2400" y="4090" width="80" height="80" as="geometry" />
        </mxCell>
        <mxCell id="rgjTrwtEVMEce0LyzO18-94" value="" style="edgeStyle=orthogonalEdgeStyle;rounded=0;orthogonalLoop=1;jettySize=auto;html=1;fontFamily=Courier New;fontStyle=1" parent="1" source="rgjTrwtEVMEce0LyzO18-91" target="rgjTrwtEVMEce0LyzO18-93" edge="1">
          <mxGeometry relative="1" as="geometry" />
        </mxCell>
        <mxCell id="rgjTrwtEVMEce0LyzO18-91" value="EXECUTE SQL: &#39;SELECT balance FROM account WHERE username = ?&#39; WITH username" style="whiteSpace=wrap;html=1;fontFamily=Courier New;fontStyle=1" parent="1" vertex="1">
          <mxGeometry x="2570" y="4180" width="120" height="90" as="geometry" />
        </mxCell>
        <mxCell id="rgjTrwtEVMEce0LyzO18-96" value="" style="edgeStyle=orthogonalEdgeStyle;rounded=0;orthogonalLoop=1;jettySize=auto;html=1;fontFamily=Courier New;fontStyle=1" parent="1" source="rgjTrwtEVMEce0LyzO18-93" target="rgjTrwtEVMEce0LyzO18-95" edge="1">
          <mxGeometry relative="1" as="geometry" />
        </mxCell>
        <mxCell id="rgjTrwtEVMEce0LyzO18-93" value="fetch row" style="whiteSpace=wrap;html=1;fontFamily=Courier New;fontStyle=1" parent="1" vertex="1">
          <mxGeometry x="2570" y="4300" width="120" height="60" as="geometry" />
        </mxCell>
        <mxCell id="rgjTrwtEVMEce0LyzO18-98" value="" style="edgeStyle=orthogonalEdgeStyle;rounded=0;orthogonalLoop=1;jettySize=auto;html=1;fontFamily=Courier New;fontStyle=1" parent="1" source="rgjTrwtEVMEce0LyzO18-95" target="rgjTrwtEVMEce0LyzO18-97" edge="1">
          <mxGeometry relative="1" as="geometry" />
        </mxCell>
        <mxCell id="rgjTrwtEVMEce0LyzO18-117" value="" style="edgeStyle=orthogonalEdgeStyle;rounded=0;orthogonalLoop=1;jettySize=auto;html=1;fontFamily=Courier New;fontStyle=1" parent="1" source="rgjTrwtEVMEce0LyzO18-95" target="rgjTrwtEVMEce0LyzO18-116" edge="1">
          <mxGeometry relative="1" as="geometry" />
        </mxCell>
        <mxCell id="rgjTrwtEVMEce0LyzO18-95" value="if row" style="rhombus;whiteSpace=wrap;html=1;fontFamily=Courier New;fontStyle=1" parent="1" vertex="1">
          <mxGeometry x="2590" y="4410" width="80" height="80" as="geometry" />
        </mxCell>
        <mxCell id="rgjTrwtEVMEce0LyzO18-102" value="" style="edgeStyle=orthogonalEdgeStyle;rounded=0;orthogonalLoop=1;jettySize=auto;html=1;fontFamily=Courier New;fontStyle=1" parent="1" source="rgjTrwtEVMEce0LyzO18-97" target="rgjTrwtEVMEce0LyzO18-101" edge="1">
          <mxGeometry relative="1" as="geometry" />
        </mxCell>
        <mxCell id="rgjTrwtEVMEce0LyzO18-97" value="user_balance = row[0]" style="whiteSpace=wrap;html=1;fontFamily=Courier New;fontStyle=1" parent="1" vertex="1">
          <mxGeometry x="2725" y="4500" width="120" height="60" as="geometry" />
        </mxCell>
        <mxCell id="rgjTrwtEVMEce0LyzO18-104" value="" style="edgeStyle=orthogonalEdgeStyle;rounded=0;orthogonalLoop=1;jettySize=auto;html=1;fontFamily=Courier New;fontStyle=1" parent="1" source="rgjTrwtEVMEce0LyzO18-101" target="rgjTrwtEVMEce0LyzO18-103" edge="1">
          <mxGeometry relative="1" as="geometry" />
        </mxCell>
        <mxCell id="rgjTrwtEVMEce0LyzO18-108" value="" style="edgeStyle=orthogonalEdgeStyle;rounded=0;orthogonalLoop=1;jettySize=auto;html=1;fontFamily=Courier New;fontStyle=1" parent="1" source="rgjTrwtEVMEce0LyzO18-101" target="rgjTrwtEVMEce0LyzO18-107" edge="1">
          <mxGeometry relative="1" as="geometry" />
        </mxCell>
        <mxCell id="rgjTrwtEVMEce0LyzO18-101" value="if user_balance &amp;gt; price" style="rhombus;whiteSpace=wrap;html=1;fontFamily=Courier New;fontStyle=1" parent="1" vertex="1">
          <mxGeometry x="2745" y="4630" width="80" height="80" as="geometry" />
        </mxCell>
        <mxCell id="rgjTrwtEVMEce0LyzO18-106" value="" style="edgeStyle=orthogonalEdgeStyle;rounded=0;orthogonalLoop=1;jettySize=auto;html=1;fontFamily=Courier New;fontStyle=1;entryX=0.5;entryY=0;entryDx=0;entryDy=0;" parent="1" source="rgjTrwtEVMEce0LyzO18-103" target="xAtVoBnAjSTzbpkWZ_YY-2" edge="1">
          <mxGeometry relative="1" as="geometry">
            <mxPoint x="2925" y="4880" as="targetPoint" />
          </mxGeometry>
        </mxCell>
        <mxCell id="rgjTrwtEVMEce0LyzO18-103" value="EXECUTE SQL: &#39;UPDATE account SET balance = balance - ? WHERE username = ? WITH price and username&#39;" style="whiteSpace=wrap;html=1;fontFamily=Courier New;fontStyle=1" parent="1" vertex="1">
          <mxGeometry x="2865" y="4720" width="120" height="130" as="geometry" />
        </mxCell>
        <mxCell id="rgjTrwtEVMEce0LyzO18-141" style="edgeStyle=orthogonalEdgeStyle;rounded=0;orthogonalLoop=1;jettySize=auto;html=1;exitX=0.5;exitY=1;exitDx=0;exitDy=0;entryX=1;entryY=0.5;entryDx=0;entryDy=0;fontFamily=Courier New;fontStyle=1" parent="1" source="rgjTrwtEVMEce0LyzO18-105" target="rgjTrwtEVMEce0LyzO18-139" edge="1">
          <mxGeometry relative="1" as="geometry">
            <mxPoint x="2945" y="5070" as="sourcePoint" />
            <mxPoint x="2815.000000000019" y="5088.75" as="targetPoint" />
          </mxGeometry>
        </mxCell>
        <mxCell id="rgjTrwtEVMEce0LyzO18-105" value="print &#39;transaction compete&#39;" style="shape=parallelogram;perimeter=parallelogramPerimeter;whiteSpace=wrap;html=1;fixedSize=1;fontFamily=Courier New;fontStyle=1" parent="1" vertex="1">
          <mxGeometry x="2865" y="5030" width="120" height="60" as="geometry" />
        </mxCell>
        <mxCell id="rgjTrwtEVMEce0LyzO18-110" value="" style="edgeStyle=orthogonalEdgeStyle;rounded=0;orthogonalLoop=1;jettySize=auto;html=1;fontFamily=Courier New;fontStyle=1" parent="1" source="rgjTrwtEVMEce0LyzO18-107" target="rgjTrwtEVMEce0LyzO18-109" edge="1">
          <mxGeometry relative="1" as="geometry" />
        </mxCell>
        <mxCell id="rgjTrwtEVMEce0LyzO18-107" value="print &#39;transaction failed&#39;" style="shape=parallelogram;perimeter=parallelogramPerimeter;whiteSpace=wrap;html=1;fixedSize=1;fontFamily=Courier New;fontStyle=1" parent="1" vertex="1">
          <mxGeometry x="2570" y="4720" width="120" height="60" as="geometry" />
        </mxCell>
        <mxCell id="rgjTrwtEVMEce0LyzO18-140" style="edgeStyle=orthogonalEdgeStyle;rounded=0;orthogonalLoop=1;jettySize=auto;html=1;exitX=0.5;exitY=1;exitDx=0;exitDy=0;entryX=0;entryY=0.5;entryDx=0;entryDy=0;fontFamily=Courier New;fontStyle=1" parent="1" source="rgjTrwtEVMEce0LyzO18-109" target="rgjTrwtEVMEce0LyzO18-139" edge="1">
          <mxGeometry relative="1" as="geometry" />
        </mxCell>
        <mxCell id="rgjTrwtEVMEce0LyzO18-109" value="return" style="whiteSpace=wrap;html=1;fontFamily=Courier New;fontStyle=1" parent="1" vertex="1">
          <mxGeometry x="2570" y="4820" width="120" height="60" as="geometry" />
        </mxCell>
        <mxCell id="rgjTrwtEVMEce0LyzO18-111" value="TRUE" style="text;html=1;align=center;verticalAlign=middle;whiteSpace=wrap;rounded=0;fontFamily=Courier New;fontStyle=1" parent="1" vertex="1">
          <mxGeometry x="2480" y="4100" width="60" height="30" as="geometry" />
        </mxCell>
        <mxCell id="rgjTrwtEVMEce0LyzO18-112" value="TRUE" style="text;html=1;align=center;verticalAlign=middle;whiteSpace=wrap;rounded=0;fontFamily=Courier New;fontStyle=1" parent="1" vertex="1">
          <mxGeometry x="2670" y="4420" width="60" height="30" as="geometry" />
        </mxCell>
        <mxCell id="rgjTrwtEVMEce0LyzO18-114" value="TRUE" style="text;html=1;align=center;verticalAlign=middle;whiteSpace=wrap;rounded=0;fontFamily=Courier New;fontStyle=1" parent="1" vertex="1">
          <mxGeometry x="2825" y="4640" width="60" height="30" as="geometry" />
        </mxCell>
        <mxCell id="rgjTrwtEVMEce0LyzO18-115" value="FALSE" style="text;html=1;align=center;verticalAlign=middle;whiteSpace=wrap;rounded=0;fontFamily=Courier New;fontStyle=1" parent="1" vertex="1">
          <mxGeometry x="2685" y="4640" width="60" height="30" as="geometry" />
        </mxCell>
        <mxCell id="rgjTrwtEVMEce0LyzO18-145" style="edgeStyle=orthogonalEdgeStyle;rounded=0;orthogonalLoop=1;jettySize=auto;html=1;exitX=0.5;exitY=1;exitDx=0;exitDy=0;entryX=0;entryY=0.5;entryDx=0;entryDy=0;fontFamily=Courier New;fontStyle=1" parent="1" source="rgjTrwtEVMEce0LyzO18-116" target="rgjTrwtEVMEce0LyzO18-139" edge="1">
          <mxGeometry relative="1" as="geometry" />
        </mxCell>
        <mxCell id="rgjTrwtEVMEce0LyzO18-116" value="print error occurred" style="shape=parallelogram;perimeter=parallelogramPerimeter;whiteSpace=wrap;html=1;fixedSize=1;fontFamily=Courier New;fontStyle=1" parent="1" vertex="1">
          <mxGeometry x="2430" y="4500" width="135" height="60" as="geometry" />
        </mxCell>
        <mxCell id="rgjTrwtEVMEce0LyzO18-123" value="" style="edgeStyle=orthogonalEdgeStyle;rounded=0;orthogonalLoop=1;jettySize=auto;html=1;fontFamily=Courier New;fontStyle=1" parent="1" source="rgjTrwtEVMEce0LyzO18-118" target="rgjTrwtEVMEce0LyzO18-122" edge="1">
          <mxGeometry relative="1" as="geometry" />
        </mxCell>
        <mxCell id="rgjTrwtEVMEce0LyzO18-127" value="" style="edgeStyle=orthogonalEdgeStyle;rounded=0;orthogonalLoop=1;jettySize=auto;html=1;fontFamily=Courier New;fontStyle=1" parent="1" source="rgjTrwtEVMEce0LyzO18-118" target="rgjTrwtEVMEce0LyzO18-126" edge="1">
          <mxGeometry relative="1" as="geometry" />
        </mxCell>
        <mxCell id="rgjTrwtEVMEce0LyzO18-118" value="if cmd == &#39;n&#39; or &#39;no&#39;" style="rhombus;whiteSpace=wrap;html=1;fontFamily=Courier New;fontStyle=1" parent="1" vertex="1">
          <mxGeometry x="2188.37" y="4190" width="80" height="80" as="geometry" />
        </mxCell>
        <mxCell id="rgjTrwtEVMEce0LyzO18-120" value="FALSE" style="text;html=1;align=center;verticalAlign=middle;whiteSpace=wrap;rounded=0;fontFamily=Courier New;fontStyle=1" parent="1" vertex="1">
          <mxGeometry x="2530" y="4420" width="60" height="30" as="geometry" />
        </mxCell>
        <mxCell id="rgjTrwtEVMEce0LyzO18-121" value="FALSE" style="text;html=1;align=center;verticalAlign=middle;whiteSpace=wrap;rounded=0;fontFamily=Courier New;fontStyle=1" parent="1" vertex="1">
          <mxGeometry x="2340" y="4100" width="60" height="30" as="geometry" />
        </mxCell>
        <mxCell id="rgjTrwtEVMEce0LyzO18-125" value="" style="edgeStyle=orthogonalEdgeStyle;rounded=0;orthogonalLoop=1;jettySize=auto;html=1;fontFamily=Courier New;fontStyle=1" parent="1" source="rgjTrwtEVMEce0LyzO18-122" target="rgjTrwtEVMEce0LyzO18-124" edge="1">
          <mxGeometry relative="1" as="geometry" />
        </mxCell>
        <mxCell id="rgjTrwtEVMEce0LyzO18-122" value="print &#39;cancelling transaction&#39;" style="shape=parallelogram;perimeter=parallelogramPerimeter;whiteSpace=wrap;html=1;fixedSize=1;fontFamily=Courier New;fontStyle=1" parent="1" vertex="1">
          <mxGeometry x="2282.79" y="4280" width="120" height="60" as="geometry" />
        </mxCell>
        <mxCell id="rgjTrwtEVMEce0LyzO18-144" style="edgeStyle=orthogonalEdgeStyle;rounded=0;orthogonalLoop=1;jettySize=auto;html=1;exitX=0.5;exitY=1;exitDx=0;exitDy=0;entryX=1;entryY=0.5;entryDx=0;entryDy=0;fontFamily=Courier New;fontStyle=1" parent="1" source="rgjTrwtEVMEce0LyzO18-124" target="rgjTrwtEVMEce0LyzO18-143" edge="1">
          <mxGeometry relative="1" as="geometry" />
        </mxCell>
        <mxCell id="rgjTrwtEVMEce0LyzO18-124" value="return" style="whiteSpace=wrap;html=1;fontFamily=Courier New;fontStyle=1" parent="1" vertex="1">
          <mxGeometry x="2282.79" y="4380" width="120" height="60" as="geometry" />
        </mxCell>
        <mxCell id="rgjTrwtEVMEce0LyzO18-129" value="" style="edgeStyle=orthogonalEdgeStyle;rounded=0;orthogonalLoop=1;jettySize=auto;html=1;fontFamily=Courier New;fontStyle=1" parent="1" source="rgjTrwtEVMEce0LyzO18-126" target="rgjTrwtEVMEce0LyzO18-128" edge="1">
          <mxGeometry relative="1" as="geometry" />
        </mxCell>
        <mxCell id="rgjTrwtEVMEce0LyzO18-126" value="print &#39;invalid command entered&#39;" style="shape=parallelogram;perimeter=parallelogramPerimeter;whiteSpace=wrap;html=1;fixedSize=1;fontFamily=Courier New;fontStyle=1" parent="1" vertex="1">
          <mxGeometry x="2030" y="4280" width="120" height="60" as="geometry" />
        </mxCell>
        <mxCell id="rgjTrwtEVMEce0LyzO18-146" style="edgeStyle=orthogonalEdgeStyle;rounded=0;orthogonalLoop=1;jettySize=auto;html=1;exitX=0.5;exitY=1;exitDx=0;exitDy=0;entryX=0;entryY=0.5;entryDx=0;entryDy=0;fontFamily=Courier New;fontStyle=1" parent="1" source="rgjTrwtEVMEce0LyzO18-128" target="rgjTrwtEVMEce0LyzO18-143" edge="1">
          <mxGeometry relative="1" as="geometry" />
        </mxCell>
        <mxCell id="rgjTrwtEVMEce0LyzO18-128" value="return" style="whiteSpace=wrap;html=1;fontFamily=Courier New;fontStyle=1" parent="1" vertex="1">
          <mxGeometry x="2030" y="4380" width="120" height="60" as="geometry" />
        </mxCell>
        <mxCell id="rgjTrwtEVMEce0LyzO18-133" value="" style="edgeStyle=orthogonalEdgeStyle;rounded=0;orthogonalLoop=1;jettySize=auto;html=1;fontFamily=Courier New;fontStyle=1" parent="1" source="rgjTrwtEVMEce0LyzO18-130" target="rgjTrwtEVMEce0LyzO18-132" edge="1">
          <mxGeometry relative="1" as="geometry" />
        </mxCell>
        <mxCell id="rgjTrwtEVMEce0LyzO18-137" value="" style="edgeStyle=orthogonalEdgeStyle;rounded=0;orthogonalLoop=1;jettySize=auto;html=1;fontFamily=Courier New;fontStyle=1" parent="1" source="rgjTrwtEVMEce0LyzO18-130" target="rgjTrwtEVMEce0LyzO18-136" edge="1">
          <mxGeometry relative="1" as="geometry" />
        </mxCell>
        <mxCell id="rgjTrwtEVMEce0LyzO18-130" value="if tickets == &#39;cancel&#39;" style="rhombus;whiteSpace=wrap;html=1;fontFamily=Courier New;fontStyle=1" parent="1" vertex="1">
          <mxGeometry x="1800" y="3680" width="80" height="80" as="geometry" />
        </mxCell>
        <mxCell id="rgjTrwtEVMEce0LyzO18-150" style="edgeStyle=orthogonalEdgeStyle;rounded=0;orthogonalLoop=1;jettySize=auto;html=1;exitX=0.5;exitY=1;exitDx=0;exitDy=0;entryX=1;entryY=0.5;entryDx=0;entryDy=0;fontFamily=Courier New;fontStyle=1" parent="1" source="rgjTrwtEVMEce0LyzO18-132" target="rgjTrwtEVMEce0LyzO18-148" edge="1">
          <mxGeometry relative="1" as="geometry" />
        </mxCell>
        <mxCell id="rgjTrwtEVMEce0LyzO18-132" value="print &#39;cancelling process...&#39;" style="shape=parallelogram;perimeter=parallelogramPerimeter;whiteSpace=wrap;html=1;fixedSize=1;fontFamily=Courier New;fontStyle=1" parent="1" vertex="1">
          <mxGeometry x="1890" y="3820" width="120" height="60" as="geometry" />
        </mxCell>
        <mxCell id="rgjTrwtEVMEce0LyzO18-149" style="edgeStyle=orthogonalEdgeStyle;rounded=0;orthogonalLoop=1;jettySize=auto;html=1;exitX=0.5;exitY=1;exitDx=0;exitDy=0;entryX=0;entryY=0.5;entryDx=0;entryDy=0;fontFamily=Courier New;fontStyle=1" parent="1" source="rgjTrwtEVMEce0LyzO18-136" target="rgjTrwtEVMEce0LyzO18-148" edge="1">
          <mxGeometry relative="1" as="geometry" />
        </mxCell>
        <mxCell id="rgjTrwtEVMEce0LyzO18-136" value="print &#39;invalid amount entered&#39;" style="shape=parallelogram;perimeter=parallelogramPerimeter;whiteSpace=wrap;html=1;fixedSize=1;fontFamily=Courier New;fontStyle=1" parent="1" vertex="1">
          <mxGeometry x="1620" y="3820" width="150" height="60" as="geometry" />
        </mxCell>
        <mxCell id="rgjTrwtEVMEce0LyzO18-160" style="edgeStyle=orthogonalEdgeStyle;rounded=0;orthogonalLoop=1;jettySize=auto;html=1;exitX=0.5;exitY=1;exitDx=0;exitDy=0;entryX=0.5;entryY=0;entryDx=0;entryDy=0;fontFamily=Courier New;fontStyle=1" parent="1" source="rgjTrwtEVMEce0LyzO18-138" target="rgjTrwtEVMEce0LyzO18-158" edge="1">
          <mxGeometry relative="1" as="geometry" />
        </mxCell>
        <mxCell id="rgjTrwtEVMEce0LyzO18-138" value="" style="ellipse;whiteSpace=wrap;html=1;aspect=fixed;fontFamily=Courier New;fontStyle=1" parent="1" vertex="1">
          <mxGeometry x="2271.25" y="5290" width="27.5" height="27.5" as="geometry" />
        </mxCell>
        <mxCell id="rgjTrwtEVMEce0LyzO18-142" style="edgeStyle=orthogonalEdgeStyle;rounded=0;orthogonalLoop=1;jettySize=auto;html=1;exitX=0.5;exitY=1;exitDx=0;exitDy=0;entryX=1;entryY=0.5;entryDx=0;entryDy=0;fontFamily=Courier New;fontStyle=1" parent="1" source="rgjTrwtEVMEce0LyzO18-139" target="rgjTrwtEVMEce0LyzO18-138" edge="1">
          <mxGeometry relative="1" as="geometry" />
        </mxCell>
        <mxCell id="rgjTrwtEVMEce0LyzO18-139" value="" style="ellipse;whiteSpace=wrap;html=1;aspect=fixed;fontFamily=Courier New;fontStyle=1" parent="1" vertex="1">
          <mxGeometry x="2762.5" y="5140" width="27.5" height="27.5" as="geometry" />
        </mxCell>
        <mxCell id="rgjTrwtEVMEce0LyzO18-147" style="edgeStyle=orthogonalEdgeStyle;rounded=0;orthogonalLoop=1;jettySize=auto;html=1;exitX=0.5;exitY=1;exitDx=0;exitDy=0;entryX=0.5;entryY=0;entryDx=0;entryDy=0;fontFamily=Courier New;fontStyle=1" parent="1" source="rgjTrwtEVMEce0LyzO18-143" target="rgjTrwtEVMEce0LyzO18-138" edge="1">
          <mxGeometry relative="1" as="geometry" />
        </mxCell>
        <mxCell id="rgjTrwtEVMEce0LyzO18-143" value="" style="ellipse;whiteSpace=wrap;html=1;aspect=fixed;fontFamily=Courier New;fontStyle=1" parent="1" vertex="1">
          <mxGeometry x="2214.62" y="4560" width="27.5" height="27.5" as="geometry" />
        </mxCell>
        <mxCell id="rgjTrwtEVMEce0LyzO18-151" style="edgeStyle=orthogonalEdgeStyle;rounded=0;orthogonalLoop=1;jettySize=auto;html=1;exitX=0.5;exitY=1;exitDx=0;exitDy=0;entryX=0;entryY=0.5;entryDx=0;entryDy=0;fontFamily=Courier New;fontStyle=1" parent="1" source="rgjTrwtEVMEce0LyzO18-148" target="rgjTrwtEVMEce0LyzO18-138" edge="1">
          <mxGeometry relative="1" as="geometry" />
        </mxCell>
        <mxCell id="rgjTrwtEVMEce0LyzO18-148" value="" style="ellipse;whiteSpace=wrap;html=1;aspect=fixed;fontFamily=Courier New;fontStyle=1" parent="1" vertex="1">
          <mxGeometry x="1826.25" y="3992.5" width="27.5" height="27.5" as="geometry" />
        </mxCell>
        <mxCell id="rgjTrwtEVMEce0LyzO18-152" value="TRUE" style="text;html=1;align=center;verticalAlign=middle;whiteSpace=wrap;rounded=0;fontFamily=Courier New;fontStyle=1" parent="1" vertex="1">
          <mxGeometry x="2268.37" y="4200" width="60" height="30" as="geometry" />
        </mxCell>
        <mxCell id="rgjTrwtEVMEce0LyzO18-153" value="FALSE" style="text;html=1;align=center;verticalAlign=middle;whiteSpace=wrap;rounded=0;fontFamily=Courier New;fontStyle=1" parent="1" vertex="1">
          <mxGeometry x="2128.37" y="4200" width="60" height="30" as="geometry" />
        </mxCell>
        <mxCell id="rgjTrwtEVMEce0LyzO18-154" value="TRUE" style="text;html=1;align=center;verticalAlign=middle;whiteSpace=wrap;rounded=0;fontFamily=Courier New;fontStyle=1" parent="1" vertex="1">
          <mxGeometry x="1880" y="3690" width="60" height="30" as="geometry" />
        </mxCell>
        <mxCell id="rgjTrwtEVMEce0LyzO18-155" value="FALSE" style="text;html=1;align=center;verticalAlign=middle;whiteSpace=wrap;rounded=0;fontFamily=Courier New;fontStyle=1" parent="1" vertex="1">
          <mxGeometry x="1740" y="3690" width="60" height="30" as="geometry" />
        </mxCell>
        <mxCell id="rgjTrwtEVMEce0LyzO18-156" value="TRUE" style="text;html=1;align=center;verticalAlign=middle;whiteSpace=wrap;rounded=0;fontFamily=Courier New;fontStyle=1" parent="1" vertex="1">
          <mxGeometry x="2360.58" y="3570" width="60" height="30" as="geometry" />
        </mxCell>
        <mxCell id="rgjTrwtEVMEce0LyzO18-157" value="FALSE" style="text;html=1;align=center;verticalAlign=middle;whiteSpace=wrap;rounded=0;fontFamily=Courier New;fontStyle=1" parent="1" vertex="1">
          <mxGeometry x="2170" y="3570" width="60" height="30" as="geometry" />
        </mxCell>
        <mxCell id="rgjTrwtEVMEce0LyzO18-159" style="edgeStyle=orthogonalEdgeStyle;rounded=0;orthogonalLoop=1;jettySize=auto;html=1;exitX=0;exitY=0.5;exitDx=0;exitDy=0;entryX=0;entryY=0.5;entryDx=0;entryDy=0;fontFamily=Courier New;fontStyle=1" parent="1" source="rgjTrwtEVMEce0LyzO18-158" target="rgjTrwtEVMEce0LyzO18-74" edge="1">
          <mxGeometry relative="1" as="geometry">
            <Array as="points">
              <mxPoint x="1570" y="5440" />
              <mxPoint x="1570" y="3451" />
            </Array>
          </mxGeometry>
        </mxCell>
        <mxCell id="rgjTrwtEVMEce0LyzO18-162" value="" style="edgeStyle=orthogonalEdgeStyle;rounded=0;orthogonalLoop=1;jettySize=auto;html=1;fontFamily=Courier New;fontStyle=1" parent="1" source="rgjTrwtEVMEce0LyzO18-158" target="rgjTrwtEVMEce0LyzO18-161" edge="1">
          <mxGeometry relative="1" as="geometry" />
        </mxCell>
        <mxCell id="rgjTrwtEVMEce0LyzO18-158" value="until user_balance &amp;gt;&amp;nbsp; price or tickets == &#39;cancel&#39;" style="rhombus;whiteSpace=wrap;html=1;fontFamily=Courier New;fontStyle=1" parent="1" vertex="1">
          <mxGeometry x="2245" y="5400" width="80" height="80" as="geometry" />
        </mxCell>
        <mxCell id="rgjTrwtEVMEce0LyzO18-161" value="EXIT" style="ellipse;whiteSpace=wrap;html=1;fontFamily=Courier New;fontStyle=1" parent="1" vertex="1">
          <mxGeometry x="2212.5" y="5560" width="145" height="80" as="geometry" />
        </mxCell>
        <mxCell id="Q0FtzRIcILbK_RpAYGkB-3" value="" style="edgeStyle=orthogonalEdgeStyle;rounded=0;orthogonalLoop=1;jettySize=auto;html=1;fontFamily=Courier New;fontStyle=1" parent="1" source="Q0FtzRIcILbK_RpAYGkB-1" target="Q0FtzRIcILbK_RpAYGkB-2" edge="1">
          <mxGeometry relative="1" as="geometry" />
        </mxCell>
        <mxCell id="Q0FtzRIcILbK_RpAYGkB-1" value="clear()" style="ellipse;whiteSpace=wrap;html=1;fontFamily=Courier New;fontStyle=1" parent="1" vertex="1">
          <mxGeometry x="2835" y="1400" width="120" height="80" as="geometry" />
        </mxCell>
        <mxCell id="Q0FtzRIcILbK_RpAYGkB-5" value="" style="edgeStyle=orthogonalEdgeStyle;rounded=0;orthogonalLoop=1;jettySize=auto;html=1;fontFamily=Courier New;fontStyle=1" parent="1" source="Q0FtzRIcILbK_RpAYGkB-2" target="Q0FtzRIcILbK_RpAYGkB-4" edge="1">
          <mxGeometry relative="1" as="geometry" />
        </mxCell>
        <mxCell id="Q0FtzRIcILbK_RpAYGkB-7" value="" style="edgeStyle=orthogonalEdgeStyle;rounded=0;orthogonalLoop=1;jettySize=auto;html=1;fontFamily=Courier New;fontStyle=1" parent="1" source="Q0FtzRIcILbK_RpAYGkB-2" target="Q0FtzRIcILbK_RpAYGkB-6" edge="1">
          <mxGeometry relative="1" as="geometry" />
        </mxCell>
        <mxCell id="Q0FtzRIcILbK_RpAYGkB-2" value="if os.name == &#39;&#39;nt&#39;" style="rhombus;whiteSpace=wrap;html=1;fontFamily=Courier New;fontStyle=1" parent="1" vertex="1">
          <mxGeometry x="2855" y="1560" width="80" height="80" as="geometry" />
        </mxCell>
        <mxCell id="Q0FtzRIcILbK_RpAYGkB-4" value="cls" style="whiteSpace=wrap;html=1;fontFamily=Courier New;fontStyle=1" parent="1" vertex="1">
          <mxGeometry x="2950" y="1650" width="120" height="60" as="geometry" />
        </mxCell>
        <mxCell id="Q0FtzRIcILbK_RpAYGkB-6" value="clear" style="whiteSpace=wrap;html=1;fontFamily=Courier New;fontStyle=1" parent="1" vertex="1">
          <mxGeometry x="2690" y="1650" width="120" height="60" as="geometry" />
        </mxCell>
        <mxCell id="xAtVoBnAjSTzbpkWZ_YY-3" style="edgeStyle=orthogonalEdgeStyle;rounded=0;orthogonalLoop=1;jettySize=auto;html=1;exitX=0.5;exitY=1;exitDx=0;exitDy=0;entryX=0.5;entryY=0;entryDx=0;entryDy=0;" edge="1" parent="1" source="xAtVoBnAjSTzbpkWZ_YY-2" target="rgjTrwtEVMEce0LyzO18-105">
          <mxGeometry relative="1" as="geometry" />
        </mxCell>
        <mxCell id="xAtVoBnAjSTzbpkWZ_YY-2" value="commit changes" style="whiteSpace=wrap;html=1;fontFamily=Courier New;fontStyle=1" vertex="1" parent="1">
          <mxGeometry x="2865" y="4920" width="120" height="60" as="geometry" />
        </mxCell>
      </root>
    </mxGraphModel>
  </diagram>
</mxfile>
